<?xml version="1.0" encoding="UTF-8"?>
<svg id="Layer_1" xmlns="http://www.w3.org/2000/svg" version="1.1" viewBox="0 0 600 600">
  <!-- Generator: Adobe Illustrator 29.5.1, SVG Export Plug-In . SVG Version: 2.1.0 Build 141)  -->
  <defs>
    <style>
      .st0 {
        fill: #fff;
      }

      .st1 {
        fill: #144d60;
      }
    </style>
  </defs>
  <circle class="st1" cx="300" cy="300" r="300"/>
  <path class="st0" d="M189.4,159.35c44.77,33.61,92.92,101.75,110.6,138.32,17.68-36.57,65.83-104.72,110.6-138.32,32.3-24.25,84.64-43.01,84.64,16.69,0,11.92-6.84,100.17-10.85,114.5-13.94,49.81-64.73,62.51-109.91,54.82,78.97,13.44,99.06,57.96,55.67,102.48-82.4,84.55-118.43-21.21-127.67-48.32-1.69-4.97-2.48-7.29-2.5-5.32-.01-1.98-.8.35-2.5,5.32-9.23,27.1-45.26,132.87-127.67,48.32-43.39-44.52-23.3-89.04,55.67-102.48-45.18,7.69-95.97-5.02-109.91-54.82-4.01-14.33-10.85-102.57-10.85-114.5,0-59.71,52.34-40.94,84.64-16.69h0Z"/>
</svg>