<?xml version="1.0" encoding="UTF-8"?>
<svg id="Layer_1" xmlns="http://www.w3.org/2000/svg" version="1.1" viewBox="0 0 1000 400">
  <!-- Generator: Adobe Illustrator 29.5.1, SVG Export Plug-In . SVG Version: 2.1.0 Build 141)  -->
  <defs>
    <style>
      .st0 {
        fill: #1d4d60;
      }

      .st1 {
        fill: #fff;
      }

      .st2 {
        fill: #121619;
      }

      .st3 {
        fill: #7e8081;
      }
    </style>
  </defs>
  <rect class="st1" x="0" width="1000" height="400"/>
  <g>
    <rect class="st0" x="96.71" y="96.64" width="221.02" height="206.71"/>
    <path class="st1" d="M143.71,171.81h17.91c13.13,0,20.76,9.95,20.76,22.94s-7.63,22.74-20.76,22.74h-17.91v-45.69ZM161.62,209.34c7.62,0,11.54-6.76,11.54-14.59s-3.91-14.79-11.54-14.79h-8.69v29.38h8.69Z"/>
    <path class="st1" d="M203.28,201.12h-3.12v16.38h-9.22v-45.69h18.24c10.47,0,14.99,7.43,14.99,14.92,0,6.5-3.38,12.33-11.07,13.93l11.87,16.84h-10.81l-10.88-16.38ZM200.16,193.69h7.36c5.17,0,7.36-3.12,7.36-6.76s-2.32-6.96-6.63-6.96h-8.09v13.73Z"/>
    <path class="st1" d="M253.36,171.21c-13,0-23.21,10.48-23.21,23.48s10.21,23.41,23.21,23.41,23.28-10.48,23.28-23.41-10.34-23.48-23.28-23.48M257.3,208.91l-16.43,4.49,3.44-7.23c-3.1-2.7-4.95-6.82-4.95-11.48,0-8.22,5.77-14.79,13.99-14.79s13.99,6.57,13.99,14.79c0,6.82-4.02,12.48-10.04,14.22"/>
    <path class="st2" d="M385.06,146.13c13.3,0,20.99,10.03,20.99,23.13s-7.69,22.93-20.99,22.93h-18.18v-46.06h18.18ZM385.06,183.03c6.89,0,10.43-6.62,10.43-13.77s-3.54-13.97-10.43-13.97h-7.69v27.74h7.69Z"/>
    <path class="st2" d="M409.46,150.54c0-3.28,2.81-5.75,6.15-5.75s6.02,2.48,6.02,5.75-2.68,5.75-6.02,5.75-6.15-2.61-6.15-5.75M410.67,160.97h9.89v31.22h-9.89v-31.22Z"/>
    <path class="st2" d="M424.77,182.09h9.36c0,1.54,1.14,3.34,3.95,3.34,2.07,0,3.81-1.07,3.81-2.54,0-1-.74-1.47-3.08-2.01l-4.08-1.07c-9.16-2.47-9.42-7.69-9.42-10.3,0-4.61,5.21-9.36,12.77-9.36,5.88,0,13.04,2.74,12.9,10.56h-9.36c0-2.01-1.4-3.01-3.34-3.01-1.67,0-3.07.8-3.07,2.14,0,1.2,1.07,1.87,2.67,2.27l5.42,1.47c7.82,2.14,8.49,7.08,8.49,9.22,0,6.89-7.15,10.16-13.44,10.16-6.95,0-13.57-3.81-13.57-10.9"/>
    <path class="st2" d="M490.69,176.55c0,10.09-7.36,16.45-15.18,16.45-3.21,0-7.35-1.34-9.63-4.28v18.85h-9.89v-46.6h9.89v3.34c2.27-2.87,6.42-4.14,9.63-4.14,7.82,0,15.18,6.35,15.18,16.38M480.67,176.55c0-3.95-3.34-7.22-7.22-7.22s-7.22,3.2-7.22,7.22,3.48,7.28,7.22,7.28,7.22-3.28,7.22-7.28"/>
    <path class="st2" d="M515.77,160.97h9.89v31.22h-9.89v-5.35c-1.07,4.34-6.08,6.15-8.96,6.15-8.29,0-12.37-5.62-12.37-15.18v-16.84h9.89v16.24c0,4.81,2.87,6.62,5.42,6.62s6.02-1.4,6.02-6.62v-16.24Z"/>
    <polygon class="st2" points="551.27 160.97 551.27 168.46 544.72 168.46 544.72 192.19 534.83 192.19 534.83 168.46 529.15 168.46 529.15 160.97 534.83 160.97 534.83 149.81 544.72 149.81 544.72 160.97 551.27 160.97"/>
    <path class="st2" d="M585.7,179.49h-22.86c.93,3.01,3.54,4.88,7.28,4.88,2.94,0,5.95-1.34,7.89-3.21l5.08,6.41c-3.07,3.35-8.42,5.42-13.63,5.42-9.89,0-16.85-6.82-16.85-16.31,0-10.17,7.82-16.52,16.78-16.52s16.45,6.29,16.45,15.78c0,.87-.07,2.01-.13,3.54M576.01,173.67c-.13-3.07-2.87-5.15-6.42-5.15-2.94,0-5.82,1.4-6.82,5.15h13.24Z"/>
    <path class="st2" d="M627.36,192.19l-10.56-16.18h-2.14v16.18h-10.49v-46.06h18.85c10.7,0,15.51,7.62,15.51,15.24,0,6.48-4.81,12.7-10.76,14.04l11.83,16.78h-12.23ZM614.66,155.29v12.43h6.69c4.61,0,6.62-3.01,6.62-6.08s-2.07-6.35-6.35-6.35h-6.95Z"/>
    <path class="st2" d="M674.96,179.49h-22.86c.93,3.01,3.54,4.88,7.28,4.88,2.94,0,5.95-1.34,7.89-3.21l5.08,6.41c-3.07,3.35-8.42,5.42-13.63,5.42-9.89,0-16.85-6.82-16.85-16.31,0-10.17,7.82-16.52,16.78-16.52s16.45,6.29,16.45,15.78c0,.87-.07,2.01-.13,3.54M665.27,173.67c-.13-3.07-2.87-5.15-6.42-5.15-2.94,0-5.82,1.4-6.82,5.15h13.24Z"/>
    <path class="st2" d="M677.31,182.09h9.36c0,1.54,1.14,3.34,3.94,3.34,2.07,0,3.81-1.07,3.81-2.54,0-1-.74-1.47-3.08-2.01l-4.08-1.07c-9.16-2.47-9.42-7.69-9.42-10.3,0-4.61,5.21-9.36,12.77-9.36,5.88,0,13.04,2.74,12.9,10.56h-9.36c0-2.01-1.4-3.01-3.34-3.01-1.67,0-3.07.8-3.07,2.14,0,1.2,1.07,1.87,2.67,2.27l5.42,1.47c7.82,2.14,8.49,7.08,8.49,9.22,0,6.89-7.15,10.16-13.44,10.16-6.95,0-13.57-3.81-13.57-10.9"/>
    <path class="st2" d="M706.72,176.61c0-9.89,8.03-16.45,16.91-16.45s16.98,6.55,16.98,16.45-8.09,16.38-16.98,16.38-16.91-6.55-16.91-16.38M730.52,176.61c0-4.28-3.07-7.28-6.89-7.28s-6.88,3.01-6.88,7.28,3.07,7.22,6.88,7.22,6.89-2.94,6.89-7.22"/>
    <rect class="st2" x="744.7" y="143.99" width="9.89" height="48.2"/>
    <path class="st2" d="M781.47,160.97h9.89v31.22h-9.89v-5.35c-1.07,4.34-6.08,6.15-8.96,6.15-8.29,0-12.37-5.62-12.37-15.18v-16.84h9.89v16.24c0,4.81,2.87,6.62,5.42,6.62s6.02-1.4,6.02-6.62v-16.24Z"/>
    <polygon class="st2" points="816.98 160.97 816.98 168.46 810.42 168.46 810.42 192.19 800.53 192.19 800.53 168.46 794.85 168.46 794.85 160.97 800.53 160.97 800.53 149.81 810.42 149.81 810.42 160.97 816.98 160.97"/>
    <path class="st2" d="M818.85,150.54c0-3.28,2.81-5.75,6.15-5.75s6.02,2.48,6.02,5.75-2.68,5.75-6.02,5.75-6.15-2.61-6.15-5.75M820.05,160.97h9.89v31.22h-9.89v-31.22Z"/>
    <path class="st2" d="M834.09,176.61c0-9.89,8.03-16.45,16.91-16.45s16.98,6.55,16.98,16.45-8.09,16.38-16.98,16.38-16.91-6.55-16.91-16.38M857.89,176.61c0-4.28-3.07-7.28-6.89-7.28s-6.88,3.01-6.88,7.28,3.07,7.22,6.88,7.22,6.89-2.94,6.89-7.22"/>
    <path class="st2" d="M903.29,175.41v16.78h-9.89v-16.18c0-4.81-2.94-6.69-5.42-6.69-2.67,0-6.02,1.4-6.02,6.62v16.24h-9.89v-31.22h9.89v5.62c1.07-4.41,6.02-6.42,8.96-6.42,8.29,0,12.37,5.68,12.37,15.24"/>
    <path class="st3" d="M366.91,232.31c0-8.85,7.04-16.02,15.98-16.02s15.94,7.17,15.94,16.02-7.13,16.07-15.94,16.07-15.98-7.21-15.98-16.07M391.66,232.31c0-5.22-3.58-9.31-8.81-9.31s-8.76,4.09-8.76,9.31,3.5,9.35,8.76,9.35,8.81-4.13,8.81-9.35"/>
    <path class="st3" d="M437.77,236.58v11.4h-6.72v-10.85c0-3.26-1.63-4.27-3.36-4.27-2.04,0-3.58,1.09-3.63,4.45v10.67h-6.72v-10.85c0-3.26-1.63-4.27-3.31-4.27-1.82,0-3.68.73-3.68,4.27v10.85h-6.72v-21.16h6.72v3.9c.54-3.09,3.59-4.45,5.72-4.45,3.13,0,5.49,1.45,6.72,3.99,1.45-2.86,4.72-3.99,6.94-3.99,5.32,0,8.04,3.82,8.04,10.3"/>
    <path class="st3" d="M466.9,237.35c0,6.85-4.99,11.03-10.3,11.03-2.18,0-5-.82-6.54-2.77v2.36h-6.72v-32.32h6.72v13.44c1.54-1.95,4.36-2.77,6.54-2.77,5.31,0,10.3,4.18,10.3,11.03M460.09,237.35c0-2.68-2.27-4.77-4.9-4.77s-4.91,2.04-4.91,4.77,2.32,4.76,4.91,4.76,4.9-2.08,4.9-4.76"/>
    <path class="st3" d="M492.45,226.82v21.16h-6.72v-3.63c-.73,2.95-4.13,4.18-6.08,4.18-5.63,0-8.4-3.81-8.4-10.3v-11.4h6.72v10.62c0,3.23,1.95,4.5,3.68,4.5s4.08-.95,4.08-4.5v-10.62h6.72Z"/>
    <path class="st3" d="M520.63,215.65v32.32h-6.67v-2.41c-1.54,2-4.4,2.81-6.58,2.81-5.27,0-10.26-4.18-10.26-11.03s5-11.03,10.26-11.03c2.18,0,5.04.82,6.58,2.81v-13.48h6.67ZM513.69,237.35c0-2.72-2.32-4.77-4.86-4.77s-4.91,2.09-4.91,4.77,2.27,4.76,4.91,4.76,4.86-2.04,4.86-4.76"/>
    <path class="st3" d="M525.3,240.98h6.35c0,1.04.77,2.27,2.68,2.27,1.41,0,2.59-.59,2.59-1.59,0-.68-.5-1-2.09-1.37l-2.77-.73c-6.22-1.68-6.4-5.22-6.4-6.99,0-3.13,3.54-6.31,8.67-6.31,3.99,0,8.85,1.86,8.76,7.17h-6.36c0-1.37-.95-2-2.27-2-1.14,0-2.09.46-2.09,1.37,0,.81.73,1.27,1.82,1.54l3.68,1c5.31,1.46,5.77,4.81,5.77,6.27,0,4.68-4.86,6.76-9.12,6.76-4.72,0-9.22-2.58-9.22-7.4"/>
    <path class="st3" d="M582.45,236.58v11.4h-6.72v-10.85c0-3.26-1.63-4.27-3.36-4.27-2.04,0-3.58,1.09-3.63,4.45v10.67h-6.72v-10.85c0-3.26-1.64-4.27-3.32-4.27-1.82,0-3.68.73-3.68,4.27v10.85h-6.72v-21.16h6.72v3.9c.55-3.09,3.58-4.45,5.72-4.45,3.13,0,5.49,1.45,6.72,3.99,1.45-2.86,4.72-3.99,6.94-3.99,5.32,0,8.04,3.82,8.04,10.3"/>
    <path class="st3" d="M610.36,226.82v21.16h-6.67v-2.41c-1.54,2-4.4,2.81-6.58,2.81-5.27,0-10.26-4.18-10.26-11.03s5-11.03,10.26-11.03c2.18,0,5.04.82,6.58,2.81v-2.32h6.67ZM603.41,237.35c0-2.72-2.32-4.77-4.86-4.77s-4.91,2.09-4.91,4.77,2.27,4.76,4.91,4.76,4.86-2.04,4.86-4.76"/>
    <path class="st3" d="M637.4,236.58v11.4h-6.72v-10.62c0-3.27-2-4.5-3.67-4.5-1.82,0-4.09.96-4.09,4.5v10.62h-6.72v-21.16h6.72v3.77c.72-3,4.09-4.31,6.08-4.31,5.63,0,8.4,3.82,8.4,10.3"/>
  </g>
</svg>