<?xml version="1.0" encoding="UTF-8"?>
<svg id="Layer_1" xmlns="http://www.w3.org/2000/svg" version="1.1" viewBox="0 0 1000 400">
  <!-- Generator: Adobe Illustrator 29.5.1, SVG Export Plug-In . SVG Version: 2.1.0 Build 141)  -->
  <defs>
    <style>
      .st0 {
        fill: #fff;
      }

      .st1 {
        fill: #121619;
      }

      .st2 {
        fill: #7e8081;
      }

      .st3 {
        fill: #6c4097;
      }
    </style>
  </defs>
  <rect class="st0" width="1000" height="400"/>
  <g>
    <rect class="st3" x="78.83" y="96.11" width="220.25" height="207.79"/>
    <path class="st0" d="M153.15,186.68v5.68h9.79v4.58h-9.79v34.27h-5.31v-34.27h-7.66v-4.68h7.66v-5.09c0-9.79,3.82-16.82,13.98-16.82h3.67v5.07h-2.91c-7.32,0-9.42,4.92-9.42,11.26Z"/>
    <path class="st0" d="M206.81,208.49v22.67h-5.34v-22.45c0-7.49-4.75-12.07-10.99-12.07-3.5-.22-6.92,1.06-9.41,3.54-2.49,2.47-3.79,5.89-3.59,9.39v21.57h-5.34v-60.78h5.34v28.91c2.45-5.58,8.67-7.83,13.51-7.83,9.4,0,15.81,6.32,15.81,17.06Z"/>
    <rect class="st0" x="218.15" y="192.26" width="5.34" height="38.9"/>
    <path class="st0" d="M268.13,211.58c-.15-8.27-6.95-14.88-15.22-14.79-8.28.09-14.92,6.85-14.88,15.13.04,8.28,6.75,14.97,15.03,14.98,4.06.07,7.98-1.53,10.83-4.43,2.85-2.9,4.39-6.84,4.25-10.9ZM232.71,211.58c0-11.25,9.12-20.37,20.37-20.37s20.37,9.12,20.37,20.37c0,7.28-3.88,14-10.18,17.64-6.3,3.64-14.07,3.64-20.37,0-6.3-3.64-10.18-10.36-10.18-17.64Z"/>
    <path class="st0" d="M220.74,184.87c1.76,0,3.18-1.42,3.18-3.18s-1.42-3.18-3.18-3.18-3.18,1.42-3.18,3.18,1.42,3.18,3.18,3.18Z"/>
    <path class="st0" d="M117.85,256.05v-92.03l14.74-8.62v-15.16h19.91v5.36l20.07-10.02,48.8,28.8c1.15.68,1.54,2.17.86,3.32-.68,1.15-2.17,1.54-3.32.86l-46.53-27.46-24.73,12.35v-8.35h-10.2v13.09l-14.74,8.62v84.38l95.61-.21v-4.92c0-1.34,1.09-2.43,2.43-2.43s2.43,1.09,2.43,2.43v9.77l-105.32.23Z"/>
    <path class="st2" d="M352.97,262.42c0-7.97,6.34-14.56,14.4-14.56s14.36,6.59,14.36,14.56-6.42,14.6-14.36,14.6-14.4-6.63-14.4-14.6ZM375.26,262.42c0-4.7-3.23-8.51-7.93-8.51s-7.89,3.8-7.89,8.51,3.15,8.55,7.89,8.55,7.93-3.84,7.93-8.55Z"/>
    <path class="st2" d="M415.72,266.26v10.27h-6.05v-10.1c0-2.94-1.47-3.89-3.03-3.89-1.88,0-3.27,1.31-3.27,4.66v9.33h-6.05v-9.98c0-2.94-1.47-4.01-2.99-4.01-1.64,0-3.31.82-3.31,4.01v9.98h-6.05v-19.1h6.05v3.72c.37-2.9,3.23-4.21,5.15-4.21,2.82,0,4.91,1.35,6.05,3.64,1.31-2.54,4.25-3.64,6.26-3.64,4.79,0,7.24,3.48,7.24,9.33Z"/>
    <path class="st2" d="M441.08,266.96c0,6.18-4.5,10.06-9.28,10.06-1.96,0-4.5-.78-5.89-2.62v2.13h-6.05v-29.49h6.05v12.47c1.39-1.8,3.93-2.58,5.89-2.58,4.79,0,9.28,3.84,9.28,10.02ZM434.95,266.96c0-2.41-2.04-4.42-4.42-4.42s-4.42,1.96-4.42,4.42,2.09,4.46,4.42,4.46,4.42-2.05,4.42-4.46Z"/>
    <path class="st2" d="M457.16,257.43h6.05v19.1h-6.05v-3.27c-.65,2.66-3.72,3.76-5.48,3.76-5.07,0-7.57-3.44-7.57-9.29v-10.31h6.05v9.94c0,2.94,1.76,4.05,3.31,4.05s3.68-.86,3.68-4.05v-9.94Z"/>
    <path class="st2" d="M481.71,247.04h6.01v29.49h-6.01v-2.13c-1.39,1.84-3.97,2.62-5.93,2.62-4.74,0-9.24-3.89-9.24-10.06s4.5-10.02,9.24-10.02c1.96,0,4.54.78,5.93,2.58v-12.47ZM481.46,266.96c0-2.45-2.09-4.42-4.38-4.42s-4.42,2-4.42,4.42,2.05,4.46,4.42,4.46,4.38-2.01,4.38-4.46Z"/>
    <path class="st2" d="M491.04,270.35h5.73c0,.94.7,2.04,2.41,2.04,1.27,0,2.33-.65,2.33-1.55,0-.61-.45-.9-1.88-1.23l-2.5-.66c-5.6-1.51-5.77-4.7-5.77-6.3,0-2.82,3.19-5.73,7.81-5.73,3.6,0,7.98,1.68,7.89,6.46h-5.73c0-1.23-.86-1.84-2.05-1.84-1.02,0-1.88.49-1.88,1.31,0,.74.65,1.15,1.64,1.39l3.31.9c4.79,1.31,5.19,4.34,5.19,5.64,0,4.21-4.38,6.22-8.22,6.22-4.25,0-8.3-2.33-8.3-6.67Z"/>
    <path class="st2" d="M541.63,266.26v10.27h-6.05v-10.1c0-2.94-1.47-3.89-3.03-3.89-1.88,0-3.27,1.31-3.27,4.66v9.33h-6.05v-9.98c0-2.94-1.47-4.01-2.99-4.01-1.64,0-3.31.82-3.31,4.01v9.98h-6.05v-19.1h6.05v3.72c.37-2.9,3.23-4.21,5.15-4.21,2.82,0,4.91,1.35,6.05,3.64,1.31-2.54,4.25-3.64,6.26-3.64,4.79,0,7.24,3.48,7.24,9.33Z"/>
    <path class="st2" d="M559.88,257.43h6.05v19.1h-6.05v-2.41c-1.31,1.8-3.64,2.9-6.05,2.9-5.36,0-9.12-4.05-9.12-10.02s3.76-10.06,9.2-10.06c2.33,0,4.66,1.02,5.97,2.78v-2.29ZM559.68,267c0-2.49-1.96-4.46-4.42-4.46-2.58,0-4.38,2-4.38,4.46s1.8,4.42,4.42,4.42c2.45,0,4.38-2.09,4.38-4.42Z"/>
    <path class="st2" d="M589.42,266.26v10.27h-6.05v-9.9c0-2.95-1.8-4.09-3.31-4.09-1.64,0-3.68.86-3.68,4.05v9.94h-6.05v-19.1h6.05v3.44c.66-2.7,3.68-3.93,5.48-3.93,5.07,0,7.57,3.48,7.57,9.33Z"/>
    <path class="st1" d="M384.35,133.03h-17.86v9.28h14.15v8.71h-14.15v17.35h-10.05v-44.11h27.91v8.77Z"/>
    <path class="st1" d="M407.08,138.47h9.48v29.9h-9.48v-5.12c-1.02,4.16-5.83,5.89-8.58,5.89-7.94,0-11.84-5.38-11.84-14.53v-16.13h9.48v15.56c0,4.61,2.75,6.34,5.19,6.34s5.76-1.34,5.76-6.34v-15.56Z"/>
    <path class="st1" d="M446.2,138.6l-2.24,9.03c-1.86-1.09-3.33-1.15-4.29-1.15-3.71,0-6.79,3.14-6.79,11.97v9.92h-9.48v-29.9h9.35v6.34c1.73-4.93,5.31-7.11,8.96-7.11,1.41,0,2.94.13,4.48.9Z"/>
    <path class="st1" d="M479.18,152.3v16.07h-9.48v-15.49c0-4.61-2.82-6.4-5.19-6.4-2.56,0-5.76,1.34-5.76,6.34v15.56h-9.48v-29.9h9.48v5.38c1.02-4.23,5.76-6.15,8.58-6.15,7.94,0,11.84,5.44,11.84,14.6Z"/>
    <path class="st1" d="M484.49,128.49c0-3.14,2.69-5.51,5.89-5.51s5.76,2.37,5.76,5.51-2.56,5.51-5.76,5.51-5.89-2.5-5.89-5.51ZM485.65,168.37v-29.9h9.48v29.9h-9.48Z"/>
    <path class="st1" d="M520.8,138.47v7.17h-6.27v22.73h-9.48v-22.73h-5.44v-7.17h5.44v-10.69h9.48v10.69h6.27Z"/>
    <path class="st1" d="M544.94,138.47h9.48v29.9h-9.48v-5.12c-1.02,4.16-5.83,5.89-8.58,5.89-7.94,0-11.84-5.38-11.84-14.53v-16.13h9.48v15.56c0,4.61,2.75,6.34,5.19,6.34s5.76-1.34,5.76-6.34v-15.56Z"/>
    <path class="st1" d="M584.06,138.6l-2.24,9.03c-1.86-1.09-3.33-1.15-4.29-1.15-3.71,0-6.79,3.14-6.79,11.97v9.92h-9.48v-29.9h9.35v6.34c1.73-4.93,5.31-7.11,8.96-7.11,1.41,0,2.94.13,4.48.9Z"/>
    <path class="st1" d="M616.39,156.21h-21.9c.9,2.88,3.39,4.67,6.98,4.67,2.82,0,5.7-1.28,7.56-3.07l4.87,6.15c-2.95,3.2-8.07,5.19-13.06,5.19-9.48,0-16.13-6.53-16.13-15.62,0-9.73,7.49-15.81,16.07-15.81s15.75,6.02,15.75,15.11c0,.83-.06,1.92-.13,3.39ZM607.11,150.64c-.13-2.95-2.75-4.93-6.15-4.93-2.82,0-5.57,1.34-6.53,4.93h12.68Z"/>
    <path class="st1" d="M659,141.16v-5.63h4.16v5.7h5.89v3.78h-5.89v9.92c0,5.51.96,10.05,7.04,10.05v4.03c-4.93,0-8.58-2.43-9.73-5.95-1.98,3.59-6.79,5.95-11.65,5.95-8.45,0-14.34-6.21-14.34-14.08,0-5.12,2.95-9.73,7.43-12.16-2.37-1.92-3.84-4.87-3.84-8.26,0-5.95,4.87-10.76,11.27-10.76,4.42,0,8.13,2.24,10.05,5.51l-3.58,2.24c-1.22-2.11-3.59-3.52-6.47-3.52-4.1,0-7.04,2.82-7.04,6.53s2.75,6.66,6.72,6.66h9.99ZM648.88,145c-5.83,0-10.18,4.67-10.18,9.92s4.03,9.86,10.12,9.86,9.99-4.1,10.18-9.41v-10.37h-10.12Z"/>
    <path class="st1" d="M381.02,180.69h10.05v44.11h-10.05v-17.41h-14.53v17.41h-10.05v-44.11h10.05v17.67h14.53v-17.67Z"/>
    <path class="st1" d="M396.71,209.88c0-9.48,7.68-15.75,16.2-15.75s16.26,6.27,16.26,15.75-7.75,15.69-16.26,15.69-16.2-6.27-16.2-15.69ZM419.5,209.88c0-4.1-2.94-6.98-6.59-6.98s-6.59,2.88-6.59,6.98,2.94,6.91,6.59,6.91,6.59-2.82,6.59-6.91Z"/>
    <path class="st1" d="M482.38,208.73v16.07h-9.48v-15.81c0-4.61-2.3-6.08-4.74-6.08-2.95,0-5.12,2.05-5.12,7.3v14.6h-9.48v-15.62c0-4.61-2.31-6.27-4.67-6.27-2.56,0-5.19,1.28-5.19,6.27v15.62h-9.48v-29.9h9.48v5.83c.58-4.55,5.06-6.59,8.07-6.59,4.42,0,7.68,2.11,9.48,5.7,2.05-3.97,6.66-5.7,9.8-5.7,7.49,0,11.33,5.44,11.33,14.6Z"/>
    <path class="st1" d="M518.88,212.63h-21.9c.9,2.88,3.39,4.67,6.98,4.67,2.82,0,5.7-1.28,7.55-3.07l4.87,6.15c-2.94,3.2-8.07,5.19-13.06,5.19-9.48,0-16.13-6.53-16.13-15.62,0-9.73,7.49-15.81,16.07-15.81s15.75,6.02,15.75,15.11c0,.83-.06,1.92-.13,3.39ZM509.59,207.06c-.13-2.95-2.75-4.93-6.15-4.93-2.82,0-5.57,1.34-6.53,4.93h12.68Z"/>
    <path class="st1" d="M538.85,224.8v-44.11h10.05v44.11h-10.05Z"/>
    <path class="st1" d="M604.74,208.73v16.07h-9.48v-15.81c0-4.61-2.3-6.08-4.74-6.08-2.94,0-5.12,2.05-5.12,7.3v14.6h-9.48v-15.62c0-4.61-2.31-6.27-4.67-6.27-2.56,0-5.18,1.28-5.18,6.27v15.62h-9.48v-29.9h9.48v5.83c.58-4.55,5.06-6.59,8.07-6.59,4.42,0,7.68,2.11,9.48,5.7,2.05-3.97,6.66-5.7,9.8-5.7,7.49,0,11.33,5.44,11.33,14.6Z"/>
    <path class="st1" d="M644.44,209.82c0,9.67-7.04,15.75-14.53,15.75-3.07,0-7.04-1.28-9.22-4.1v18.05h-9.48v-44.63h9.48v3.2c2.18-2.75,6.15-3.97,9.22-3.97,7.49,0,14.53,6.08,14.53,15.69ZM634.83,209.82c0-3.78-3.2-6.91-6.91-6.91s-6.91,3.07-6.91,6.91,3.33,6.98,6.91,6.98,6.91-3.14,6.91-6.98Z"/>
    <path class="st1" d="M672.36,195.03l-2.24,9.03c-1.86-1.09-3.33-1.15-4.29-1.15-3.71,0-6.79,3.14-6.79,11.97v9.92h-9.48v-29.9h9.35v6.34c1.73-4.93,5.31-7.11,8.96-7.11,1.41,0,2.94.13,4.48.9Z"/>
    <path class="st1" d="M672.93,209.88c0-9.48,7.68-15.75,16.2-15.75s16.26,6.27,16.26,15.75-7.75,15.69-16.26,15.69-16.2-6.27-16.2-15.69ZM695.72,209.88c0-4.1-2.95-6.98-6.59-6.98s-6.59,2.88-6.59,6.98,2.95,6.91,6.59,6.91,6.59-2.82,6.59-6.91Z"/>
    <path class="st1" d="M729.08,194.9h10.31l-12.68,29.9h-8.26l-12.68-29.9h10.31l6.53,17.8,6.47-17.8Z"/>
    <path class="st1" d="M771.6,212.63h-21.9c.9,2.88,3.39,4.67,6.98,4.67,2.82,0,5.7-1.28,7.56-3.07l4.87,6.15c-2.95,3.2-8.07,5.19-13.06,5.19-9.48,0-16.13-6.53-16.13-15.62,0-9.73,7.49-15.81,16.07-15.81s15.75,6.02,15.75,15.11c0,.83-.06,1.92-.13,3.39ZM762.32,207.06c-.13-2.95-2.75-4.93-6.15-4.93-2.82,0-5.57,1.34-6.53,4.93h12.68Z"/>
    <path class="st1" d="M824.81,208.73v16.07h-9.48v-15.81c0-4.61-2.3-6.08-4.74-6.08-2.94,0-5.12,2.05-5.12,7.3v14.6h-9.48v-15.62c0-4.61-2.31-6.27-4.67-6.27-2.56,0-5.18,1.28-5.18,6.27v15.62h-9.48v-29.9h9.48v5.83c.58-4.55,5.06-6.59,8.07-6.59,4.42,0,7.68,2.11,9.48,5.7,2.05-3.97,6.66-5.7,9.8-5.7,7.49,0,11.33,5.44,11.33,14.6Z"/>
    <path class="st1" d="M861.3,212.63h-21.9c.9,2.88,3.39,4.67,6.98,4.67,2.82,0,5.7-1.28,7.56-3.07l4.87,6.15c-2.95,3.2-8.07,5.19-13.06,5.19-9.48,0-16.13-6.53-16.13-15.62,0-9.73,7.49-15.81,16.07-15.81s15.75,6.02,15.75,15.11c0,.83-.06,1.92-.13,3.39ZM852.02,207.06c-.13-2.95-2.75-4.93-6.15-4.93-2.82,0-5.57,1.34-6.53,4.93h12.68Z"/>
    <path class="st1" d="M896.26,208.73v16.07h-9.48v-15.49c0-4.61-2.82-6.4-5.19-6.4-2.56,0-5.76,1.34-5.76,6.34v15.56h-9.48v-29.9h9.48v5.38c1.02-4.23,5.76-6.15,8.58-6.15,7.94,0,11.85,5.44,11.85,14.6Z"/>
    <path class="st1" d="M921.17,194.9v7.17h-6.27v22.73h-9.48v-22.73h-5.44v-7.17h5.44v-10.69h9.48v10.69h6.27Z"/>
  </g>
</svg>