<?xml version="1.0" encoding="UTF-8"?>
<svg id="Layer_1" xmlns="http://www.w3.org/2000/svg" version="1.1" viewBox="0 0 1000 400">
  <!-- Generator: Adobe Illustrator 29.5.1, SVG Export Plug-In . SVG Version: 2.1.0 Build 141)  -->
  <defs>
    <style>
      .st0 {
        fill: #414141;
      }

      .st1 {
        fill: #1d1d1b;
      }

      .st2 {
        fill: #fff;
      }
    </style>
  </defs>
  <rect class="st2" width="1000" height="400"/>
  <g>
    <g>
      <path class="st1" d="M86.21,114.35h25.93v145.67h-25.93V114.35Z"/>
      <path class="st1" d="M271.09,109.76c-42.56,0-77.07,34.5-77.07,77.07s34.5,77.07,77.07,77.07,77.07-34.5,77.07-77.07-34.5-77.07-77.07-77.07ZM271.09,237c-27.45,0-49.7-22.25-49.7-49.7s22.25-49.7,49.7-49.7,49.7,22.25,49.7,49.7-22.25,49.7-49.7,49.7Z"/>
      <path class="st1" d="M185.86,186.83c0-6.59.77-13,2.19-19.16h-37.23v-27.2h48.77c6.85-10.55,15.97-19.49,26.67-26.12h-101.36v145.67h25.93v-66.23h35.35c-.19-2.3-.31-4.62-.31-6.96Z"/>
    </g>
    <g>
      <g>
        <rect class="st1" x="364.6" y="114.06" width="549.2" height="5.59"/>
        <rect class="st1" x="364.6" y="254" width="549.2" height="5.59"/>
      </g>
      <g>
        <g>
          <path class="st1" d="M395.74,152.87h-2.21c-.2-1.95-.63-3.39-1.29-4.32-.66-.93-1.37-1.5-2.13-1.72-.76-.22-1.63-.32-2.62-.32h-4v23.08c0,.91.09,1.62.28,2.13.19.5.62.89,1.3,1.17.68.28,1.68.42,3,.42v2.14h-15.8v-2.14c1.94,0,3.19-.28,3.74-.84.56-.56.84-1.52.84-2.88v-23.08h-3.35c-1.32,0-2.41.1-3.28.31-.87.21-1.63.78-2.29,1.72-.66.94-1.03,2.38-1.13,4.33h-2.21v-8.95h31.14v8.95Z"/>
          <path class="st1" d="M440.56,175.44h-15.5v-2.14c1.27,0,2.23-.14,2.88-.42.65-.28,1.07-.68,1.25-1.21.19-.53.28-1.22.28-2.09v-9.46h-14.62v9.46c0,1.3.27,2.25.81,2.84.54.59,1.78.88,3.72.88v2.14h-15.62v-2.14c1.25,0,2.21-.14,2.87-.42.66-.28,1.09-.68,1.28-1.2.19-.52.29-1.22.29-2.1v-19.8c0-.88-.09-1.58-.28-2.08-.19-.5-.6-.9-1.23-1.19-.63-.3-1.61-.44-2.93-.44v-2.14h15.62v2.14c-1.92,0-3.16.29-3.71.86-.55.57-.83,1.53-.83,2.86v7.76h14.62v-7.76c0-.88-.08-1.58-.25-2.08-.17-.5-.57-.9-1.21-1.19-.63-.3-1.62-.44-2.95-.44v-2.14h15.5v2.14c-1.32,0-2.29.15-2.93.44-.63.29-1.04.69-1.22,1.19-.18.5-.27,1.2-.27,2.08v19.8c0,.85.08,1.53.24,2.03.16.5.57.91,1.22,1.22.65.31,1.63.46,2.95.46v2.14Z"/>
          <path class="st1" d="M476.8,165.08l-.26,10.36h-28.07v-2.14c1.94,0,3.19-.28,3.74-.84s.84-1.52.84-2.88v-19.8c0-.9-.09-1.6-.27-2.1-.18-.5-.6-.9-1.25-1.19-.66-.29-1.68-.43-3.06-.43v-2.14h26.15l.42,8.18h-2.14c-.48-1.81-1.03-3.11-1.66-3.89-.63-.78-1.33-1.26-2.11-1.44-.78-.18-1.96-.27-3.52-.27h-5.9v11.13h3.21c1.1,0,1.92-.1,2.46-.29.54-.19.92-.56,1.14-1.1.22-.54.37-1.39.44-2.56h2.23v10.48h-2.14c-.06-1.16-.22-2.02-.46-2.57-.25-.55-.64-.92-1.17-1.1-.54-.19-1.35-.28-2.45-.28h-3.25v7.41c0,1.24.03,2.15.09,2.72.06.57.23,1.05.5,1.43.27.38.71.66,1.32.83s1.48.25,2.62.25h2.53c1.07,0,2.09-.13,3.06-.4.97-.27,1.92-.97,2.85-2.09s1.58-2.89,1.95-5.29h2.18Z"/>
          <path class="st1" d="M518.48,175.44h-15.99v-2.14c1.33,0,2.34-.13,3.02-.38.68-.26,1.13-.64,1.34-1.15.21-.51.31-1.24.31-2.18v-19.8c0-1.36-.28-2.32-.85-2.88-.57-.56-1.84-.84-3.82-.84v-2.14h15.99v2.14c-1.33,0-2.34.13-3.02.39-.68.27-1.13.65-1.33,1.15-.21.5-.31,1.23-.31,2.17v19.8c0,.9.1,1.6.3,2.12.2.51.63.9,1.29,1.18s1.69.42,3.08.42v2.14Z"/>
          <path class="st1" d="M560.42,146.07c-1.5,0-2.58.15-3.23.45-.65.3-1.05.75-1.21,1.33-.15.59-.23,1.55-.23,2.88v24.98h-2.14l-20.62-24.49v17.36c0,1.32.08,2.27.24,2.87.16.6.58,1.06,1.24,1.37.67.32,1.74.48,3.23.48v2.14h-11.71v-2.14c1.39,0,2.4-.16,3.03-.48.63-.32,1.01-.78,1.16-1.37.15-.6.22-1.55.22-2.87v-16.08c0-1.3-.03-2.27-.1-2.93-.07-.65-.24-1.22-.5-1.71-.27-.49-.69-.88-1.29-1.19-.6-.3-1.42-.51-2.48-.62v-2.14h9.18l17.94,21.19v-14.39c0-1.18-.08-2.08-.24-2.71-.16-.63-.57-1.11-1.21-1.45-.64-.34-1.66-.51-3.06-.51v-2.14h11.76v2.14Z"/>
          <path class="st1" d="M601.19,159.96c0,2.28-.39,4.33-1.16,6.17-.77,1.83-1.77,3.37-3,4.59-1.22,1.22-2.53,2.15-3.93,2.77-2.94,1.3-6.55,1.95-10.81,1.95h-14.38v-2.14c1.33,0,2.34-.13,3.02-.38.68-.26,1.13-.64,1.34-1.15.21-.51.31-1.24.31-2.18v-19.89c0-1.36-.28-2.32-.84-2.88-.56-.56-1.84-.84-3.83-.84v-2.18l6.76-.14c.23,0,1.18-.02,2.84-.05,1.66-.03,2.62-.05,2.88-.05,2.59,0,4.78.14,6.59.42,1.8.28,3.46.73,4.96,1.35,1.38.56,2.65,1.34,3.81,2.33,1.16,1,2.14,2.14,2.94,3.42.8,1.28,1.41,2.67,1.85,4.17.43,1.5.65,3.07.65,4.72ZM593.66,159.82c0-3.27-.63-6.01-1.87-8.22-1.25-2.21-2.94-3.74-5.08-4.59-.93-.37-1.92-.61-2.96-.71-1.04-.1-2.54-.15-4.49-.15v22.15c0,1.27.06,2.2.19,2.78.12.58.49,1.02,1.09,1.33.6.3,1.54.45,2.81.45,3.76,0,6.43-1.32,7.98-3.95,1.56-2.64,2.34-5.67,2.34-9.09Z"/>
          <path class="st1" d="M638.46,165.08l-.26,10.36h-28.07v-2.14c1.94,0,3.19-.28,3.74-.84s.84-1.52.84-2.88v-19.8c0-.9-.09-1.6-.27-2.1-.18-.5-.6-.9-1.25-1.19-.66-.29-1.68-.43-3.06-.43v-2.14h26.15l.42,8.18h-2.14c-.48-1.81-1.03-3.11-1.66-3.89-.63-.78-1.33-1.26-2.11-1.44-.78-.18-1.96-.27-3.52-.27h-5.9v11.13h3.21c1.1,0,1.92-.1,2.46-.29.54-.19.92-.56,1.14-1.1.22-.54.37-1.39.44-2.56h2.23v10.48h-2.14c-.06-1.16-.22-2.02-.46-2.57-.25-.55-.64-.92-1.17-1.1-.54-.19-1.35-.28-2.45-.28h-3.25v7.41c0,1.24.03,2.15.09,2.72.06.57.23,1.05.5,1.43.27.38.71.66,1.32.83s1.48.25,2.62.25h2.53c1.07,0,2.09-.13,3.06-.4.97-.27,1.92-.97,2.85-2.09s1.58-2.89,1.95-5.29h2.18Z"/>
          <path class="st1" d="M675.15,152.32c0,2.59-.8,4.55-2.4,5.89-1.59,1.34-3.47,2.2-5.63,2.58-2.16.38-4.43.57-6.82.57h-2.09v8.23c0,.93.1,1.65.3,2.16.2.51.63.9,1.3,1.16.67.26,1.68.39,3.05.39v2.14h-15.85v-2.14c1.35,0,2.35-.14,2.99-.42s1.06-.68,1.25-1.18c.19-.51.29-1.22.29-2.12v-19.89c0-.9-.09-1.6-.28-2.1-.19-.5-.6-.9-1.25-1.19-.65-.29-1.65-.43-3-.43v-2.18l9-.23c.46-.02.97-.03,1.52-.04.55,0,.99-.01,1.31-.02.33,0,.81-.01,1.44-.01.79,0,1.38,0,1.77.02,1.84.08,3.62.25,5.32.53,1.71.28,3.43,1.07,5.17,2.36,1.74,1.29,2.61,3.27,2.61,5.91ZM667.99,152.37c0-2.51-.73-4.19-2.2-5.03-1.47-.84-3.39-1.27-5.78-1.27-.43,0-1.04.02-1.81.05v12.67h2.14c2.27,0,4.12-.39,5.53-1.18,1.41-.78,2.12-2.53,2.12-5.24Z"/>
          <path class="st1" d="M711.56,165.08l-.26,10.36h-28.07v-2.14c1.94,0,3.19-.28,3.74-.84s.84-1.52.84-2.88v-19.8c0-.9-.09-1.6-.27-2.1-.18-.5-.6-.9-1.25-1.19-.66-.29-1.68-.43-3.06-.43v-2.14h26.15l.42,8.18h-2.14c-.48-1.81-1.03-3.11-1.66-3.89-.63-.78-1.33-1.26-2.11-1.44s-1.96-.27-3.52-.27h-5.9v11.13h3.21c1.1,0,1.92-.1,2.46-.29.54-.19.92-.56,1.14-1.1.22-.54.37-1.39.44-2.56h2.23v10.48h-2.14c-.06-1.16-.22-2.02-.46-2.57s-.64-.92-1.17-1.1c-.54-.19-1.35-.28-2.45-.28h-3.25v7.41c0,1.24.03,2.15.09,2.72.06.57.23,1.05.5,1.43.27.38.71.66,1.32.83.61.17,1.48.25,2.62.25h2.53c1.07,0,2.09-.13,3.06-.4.97-.27,1.92-.97,2.85-2.09.93-1.12,1.58-2.89,1.95-5.29h2.18Z"/>
          <path class="st1" d="M754.29,146.07c-1.5,0-2.58.15-3.23.45-.65.3-1.05.75-1.21,1.33-.15.59-.23,1.55-.23,2.88v24.98h-2.14l-20.62-24.49v17.36c0,1.32.08,2.27.24,2.87.16.6.58,1.06,1.24,1.37.67.32,1.74.48,3.23.48v2.14h-11.71v-2.14c1.39,0,2.4-.16,3.03-.48.63-.32,1.01-.78,1.16-1.37.15-.6.22-1.55.22-2.87v-16.08c0-1.3-.03-2.27-.1-2.93-.07-.65-.24-1.22-.5-1.71-.27-.49-.69-.88-1.29-1.19-.6-.3-1.42-.51-2.48-.62v-2.14h9.18l17.94,21.19v-14.39c0-1.18-.08-2.08-.24-2.71-.16-.63-.57-1.11-1.21-1.45-.64-.34-1.66-.51-3.06-.51v-2.14h11.76v2.14Z"/>
          <path class="st1" d="M795.06,159.96c0,2.28-.39,4.33-1.16,6.17-.77,1.83-1.77,3.37-3,4.59-1.22,1.22-2.53,2.15-3.93,2.77-2.94,1.3-6.55,1.95-10.81,1.95h-14.38v-2.14c1.33,0,2.34-.13,3.02-.38.68-.26,1.13-.64,1.34-1.15.21-.51.31-1.24.31-2.18v-19.89c0-1.36-.28-2.32-.84-2.88-.56-.56-1.84-.84-3.83-.84v-2.18l6.76-.14c.23,0,1.18-.02,2.84-.05,1.66-.03,2.62-.05,2.88-.05,2.59,0,4.78.14,6.59.42,1.8.28,3.46.73,4.96,1.35,1.38.56,2.65,1.34,3.81,2.33,1.16,1,2.14,2.14,2.94,3.42.8,1.28,1.41,2.67,1.85,4.17.43,1.5.65,3.07.65,4.72ZM787.53,159.82c0-3.27-.63-6.01-1.87-8.22-1.25-2.21-2.94-3.74-5.08-4.59-.93-.37-1.92-.61-2.96-.71-1.04-.1-2.54-.15-4.49-.15v22.15c0,1.27.06,2.2.19,2.78.12.58.49,1.02,1.09,1.33.6.3,1.54.45,2.81.45,3.76,0,6.43-1.32,7.98-3.95,1.56-2.64,2.34-5.67,2.34-9.09Z"/>
          <path class="st1" d="M832.33,165.08l-.26,10.36h-28.07v-2.14c1.94,0,3.19-.28,3.74-.84.56-.56.84-1.52.84-2.88v-19.8c0-.9-.09-1.6-.27-2.1-.18-.5-.6-.9-1.25-1.19-.66-.29-1.68-.43-3.06-.43v-2.14h26.15l.42,8.18h-2.14c-.48-1.81-1.03-3.11-1.66-3.89-.63-.78-1.33-1.26-2.11-1.44-.78-.18-1.96-.27-3.52-.27h-5.9v11.13h3.21c1.1,0,1.92-.1,2.46-.29.54-.19.92-.56,1.14-1.1.22-.54.37-1.39.44-2.56h2.23v10.48h-2.14c-.06-1.16-.22-2.02-.46-2.57-.25-.55-.64-.92-1.17-1.1-.54-.19-1.35-.28-2.45-.28h-3.25v7.41c0,1.24.03,2.15.09,2.72.06.57.23,1.05.5,1.43s.71.66,1.32.83c.61.17,1.48.25,2.62.25h2.53c1.07,0,2.09-.13,3.06-.4.97-.27,1.92-.97,2.85-2.09s1.58-2.89,1.95-5.29h2.18Z"/>
          <path class="st1" d="M875.06,146.07c-1.5,0-2.58.15-3.23.45-.65.3-1.05.75-1.21,1.33-.15.59-.23,1.55-.23,2.88v24.98h-2.14l-20.62-24.49v17.36c0,1.32.08,2.27.24,2.87.16.6.58,1.06,1.24,1.37.67.32,1.74.48,3.23.48v2.14h-11.71v-2.14c1.39,0,2.4-.16,3.03-.48.63-.32,1.01-.78,1.16-1.37.15-.6.22-1.55.22-2.87v-16.08c0-1.3-.03-2.27-.1-2.93-.07-.65-.24-1.22-.5-1.71-.27-.49-.69-.88-1.29-1.19-.6-.3-1.42-.51-2.48-.62v-2.14h9.18l17.94,21.19v-14.39c0-1.18-.08-2.08-.24-2.71-.16-.63-.57-1.11-1.21-1.45-.64-.34-1.66-.51-3.06-.51v-2.14h11.76v2.14Z"/>
          <path class="st1" d="M913.79,152.87h-2.21c-.2-1.95-.63-3.39-1.29-4.32-.66-.93-1.37-1.5-2.13-1.72-.76-.22-1.63-.32-2.62-.32h-4v23.08c0,.91.09,1.62.28,2.13.19.5.62.89,1.3,1.17.68.28,1.68.42,3,.42v2.14h-15.8v-2.14c1.94,0,3.19-.28,3.74-.84.56-.56.84-1.52.84-2.88v-23.08h-3.35c-1.32,0-2.41.1-3.28.31-.87.21-1.63.78-2.29,1.72-.66.94-1.03,2.38-1.13,4.33h-2.21v-8.95h31.14v8.95Z"/>
        </g>
        <g>
          <path class="st1" d="M388.19,208.49h-1.98c-.35-1.59-.82-2.75-1.4-3.48-.58-.73-1.24-1.18-1.96-1.35-.72-.17-1.73-.25-3.02-.25h-5.1v10.09h2.68c1.27,0,2.12-.22,2.57-.65.45-.43.72-1.4.8-2.89h1.94v9.5h-1.98c-.07-1.09-.2-1.88-.39-2.36-.19-.48-.51-.81-.97-.99-.46-.18-1.14-.27-2.06-.27h-2.59v8.49c0,1.15.23,2,.69,2.55.46.55,1.54.82,3.25.82h.59v1.94h-14.67v-1.94c1.74,0,2.86-.26,3.36-.77.5-.51.75-1.38.75-2.6v-17.95c0-.82-.08-1.45-.25-1.91-.17-.46-.55-.81-1.15-1.07-.6-.26-1.5-.39-2.71-.39v-1.94h23.39l.21,7.42Z"/>
          <path class="st1" d="M423.13,215.36c0,2.6-.62,5.03-1.86,7.3-1.23,2.27-3.07,4.09-5.49,5.46-2.42,1.37-5.29,2.06-8.58,2.06-2.7,0-5.07-.44-7.12-1.31-2.05-.87-3.73-2.04-5.03-3.5-1.3-1.46-2.26-3.06-2.88-4.8-.63-1.74-.94-3.49-.94-5.25,0-2.54.6-4.94,1.79-7.2,1.19-2.26,2.99-4.08,5.39-5.47,2.4-1.38,5.27-2.07,8.62-2.07,3.05,0,5.64.5,7.77,1.5,2.14,1,3.8,2.26,4.99,3.77,1.19,1.51,2.05,3.11,2.56,4.77.51,1.67.77,3.25.77,4.75ZM416.3,215.27c0-1.6-.14-3.12-.41-4.55-.27-1.43-.75-2.73-1.44-3.89-.69-1.16-1.63-2.08-2.82-2.76-1.19-.68-2.67-1.02-4.42-1.02-2.42,0-4.3.6-5.66,1.8-1.36,1.2-2.27,2.7-2.76,4.51-.48,1.81-.72,3.78-.72,5.91,0,1.18.08,2.41.23,3.69.15,1.28.53,2.59,1.12,3.93.59,1.34,1.53,2.47,2.82,3.39,1.29.92,2.96,1.38,5.01,1.38s3.69-.47,4.96-1.42c1.27-.95,2.2-2.11,2.78-3.48.58-1.37.95-2.68,1.1-3.93.15-1.25.22-2.43.22-3.56Z"/>
          <path class="st1" d="M459.07,215.36c0,2.6-.62,5.03-1.86,7.3-1.23,2.27-3.07,4.09-5.49,5.46-2.42,1.37-5.29,2.06-8.58,2.06-2.7,0-5.07-.44-7.12-1.31-2.05-.87-3.73-2.04-5.03-3.5-1.3-1.46-2.26-3.06-2.88-4.8-.63-1.74-.94-3.49-.94-5.25,0-2.54.6-4.94,1.79-7.2,1.19-2.26,2.99-4.08,5.39-5.47,2.4-1.38,5.27-2.07,8.62-2.07,3.05,0,5.64.5,7.77,1.5,2.14,1,3.8,2.26,4.99,3.77,1.19,1.51,2.05,3.11,2.56,4.77.51,1.67.77,3.25.77,4.75ZM452.24,215.27c0-1.6-.14-3.12-.41-4.55-.27-1.43-.75-2.73-1.44-3.89-.69-1.16-1.63-2.08-2.82-2.76-1.19-.68-2.67-1.02-4.42-1.02-2.42,0-4.3.6-5.66,1.8-1.36,1.2-2.27,2.7-2.76,4.51-.48,1.81-.72,3.78-.72,5.91,0,1.18.08,2.41.23,3.69.15,1.28.53,2.59,1.12,3.93.59,1.34,1.53,2.47,2.82,3.39,1.29.92,2.96,1.38,5.01,1.38s3.69-.47,4.96-1.42c1.27-.95,2.2-2.11,2.78-3.48.58-1.37.95-2.68,1.1-3.93.15-1.25.22-2.43.22-3.56Z"/>
          <path class="st1" d="M489.7,209.18h-2c-.18-1.77-.57-3.08-1.17-3.92-.6-.84-1.24-1.36-1.93-1.56-.69-.2-1.48-.29-2.38-.29h-3.63v20.92c0,.83.09,1.47.25,1.93.17.46.56.81,1.18,1.06.62.26,1.52.38,2.72.38v1.94h-14.32v-1.94c1.76,0,2.89-.25,3.39-.76.5-.5.76-1.37.76-2.61v-20.92h-3.03c-1.19,0-2.18.09-2.97.28-.79.19-1.48.71-2.07,1.56-.6.85-.94,2.16-1.02,3.93h-2v-8.11h28.23v8.11Z"/>
          <path class="st1" d="M517.66,222.1c0,1.6-.41,2.91-1.22,3.93-.82,1.02-1.85,1.79-3.1,2.32-1.25.53-2.47.87-3.67,1.04-1.19.17-2.35.25-3.45.25h-14.33v-1.94c1.22,0,2.12-.13,2.71-.38.58-.25.96-.61,1.14-1.07s.26-1.1.26-1.92v-18.04c0-1.26-.26-2.14-.78-2.63-.52-.49-1.63-.74-3.33-.74v-1.98c2.04-.04,3.98-.08,5.82-.13,1.84-.04,3.35-.07,4.54-.09,1.19-.02,2.02-.03,2.49-.03h.78c1.46,0,2.99.15,4.58.45,1.59.3,3.05.99,4.36,2.06,1.31,1.07,1.97,2.6,1.97,4.61,0,1.5-.53,2.8-1.6,3.88-1.07,1.08-2.82,1.97-5.25,2.68,1.66.29,3.1.79,4.33,1.48,1.23.69,2.16,1.58,2.79,2.65.63,1.07.95,2.27.95,3.6ZM510.41,207.98c0-.99-.24-1.84-.71-2.58-.47-.74-1.16-1.31-2.09-1.73-.92-.41-2.05-.62-3.38-.62h-2.21v10.24h1.73c2.26,0,3.94-.48,5.02-1.43,1.09-.95,1.63-2.25,1.63-3.87ZM511.19,221.74c0-1.94-.5-3.44-1.51-4.52-1-1.07-2.42-1.61-4.25-1.61h-3.41v7.44c0,1.04.06,1.85.19,2.43.13.58.44,1.03.95,1.35.5.32,1.31.47,2.4.47,1.46,0,2.76-.44,3.91-1.33,1.14-.88,1.72-2.3,1.72-4.23Z"/>
          <path class="st1" d="M547.26,229.64h-13.46v-1.94c1.14,0,1.97-.08,2.49-.24.52-.16.78-.54.78-1.15,0-.42-.08-.85-.25-1.28l-1.35-3.37h-9.27l-.69,1.86c-.4,1.04-.59,1.79-.59,2.25,0,.84.33,1.38.98,1.6.65.23,1.41.34,2.29.34v1.94h-9.84v-1.94c.79,0,1.45-.15,2-.44.55-.29,1.07-.85,1.57-1.67.5-.82,1.03-1.98,1.61-3.49l8.24-21.57h2l8.7,22.25c.63,1.57,1.09,2.64,1.39,3.19.29.56.7.99,1.22,1.29.52.3,1.25.45,2.19.45v1.94ZM534.71,219.59l-3.94-9.97-3.75,9.97h7.69Z"/>
          <path class="st1" d="M574.31,220.09l-.19,9.54h-25.45v-1.94c1.76,0,2.89-.25,3.39-.76.51-.5.76-1.37.76-2.61v-17.95c0-.83-.09-1.47-.25-1.93-.17-.46-.56-.81-1.17-1.06-.61-.25-1.52-.38-2.73-.38v-1.94h14.37v1.94c-1.19,0-2.1.12-2.71.36-.61.24-1.01.59-1.2,1.04-.19.46-.29,1.11-.29,1.97v16.44c0,1.29.06,2.22.19,2.78.13.56.47.99,1.03,1.27.56.29,1.48.43,2.76.43,1.62,0,3.03-.12,4.25-.37,1.22-.24,2.34-.9,3.37-1.96,1.03-1.06,1.67-2.68,1.93-4.88h1.94Z"/>
          <path class="st1" d="M602.19,220.09l-.19,9.54h-25.45v-1.94c1.76,0,2.89-.25,3.39-.76.51-.5.76-1.37.76-2.61v-17.95c0-.83-.09-1.47-.25-1.93-.17-.46-.56-.81-1.17-1.06-.61-.25-1.52-.38-2.73-.38v-1.94h14.37v1.94c-1.19,0-2.1.12-2.71.36-.61.24-1.01.59-1.2,1.04-.19.46-.29,1.11-.29,1.97v16.44c0,1.29.06,2.22.19,2.78.13.56.47.99,1.03,1.27.56.29,1.48.43,2.76.43,1.62,0,3.03-.12,4.25-.37,1.22-.24,2.34-.9,3.37-1.96,1.03-1.06,1.67-2.68,1.93-4.88h1.94Z"/>
          <path class="st1" d="M648.1,215.36c0,2.6-.62,5.03-1.86,7.3-1.23,2.27-3.07,4.09-5.49,5.46-2.42,1.37-5.29,2.06-8.58,2.06-2.7,0-5.07-.44-7.12-1.31-2.05-.87-3.73-2.04-5.03-3.5-1.3-1.46-2.26-3.06-2.88-4.8-.63-1.74-.94-3.49-.94-5.25,0-2.54.6-4.94,1.79-7.2,1.19-2.26,2.99-4.08,5.39-5.47,2.4-1.38,5.27-2.07,8.62-2.07,3.05,0,5.64.5,7.77,1.5,2.14,1,3.8,2.26,4.99,3.77,1.19,1.51,2.05,3.11,2.56,4.77.51,1.67.77,3.25.77,4.75ZM641.27,215.27c0-1.6-.14-3.12-.41-4.55-.27-1.43-.75-2.73-1.44-3.89-.69-1.16-1.63-2.08-2.82-2.76-1.19-.68-2.67-1.02-4.42-1.02-2.42,0-4.3.6-5.66,1.8-1.36,1.2-2.27,2.7-2.76,4.51-.48,1.81-.72,3.78-.72,5.91,0,1.18.08,2.41.23,3.69.15,1.28.53,2.59,1.12,3.93.59,1.34,1.53,2.47,2.82,3.39,1.29.92,2.96,1.38,5.01,1.38s3.69-.47,4.96-1.42c1.27-.95,2.2-2.11,2.78-3.48.58-1.37.95-2.68,1.1-3.93.15-1.25.22-2.43.22-3.56Z"/>
          <path class="st1" d="M690.89,229.64h-14.33v-1.94c1.23,0,2.14-.12,2.72-.37.57-.24.95-.6,1.13-1.07.18-.47.26-1.11.26-1.93v-17.91l-10.79,23.22h-1.28l-10.93-23.22v17c0,.9.03,1.59.09,2.07.06.48.23.88.49,1.22.26.34.67.59,1.23.75.56.16,1.34.24,2.34.24v1.94h-10.58v-1.94c1.01,0,1.79-.09,2.35-.25.55-.17.96-.42,1.21-.76.26-.34.41-.74.46-1.21.06-.47.09-1.16.09-2.06v-16.18c0-1.21-.06-2.08-.19-2.61-.13-.54-.47-.94-1.04-1.21-.57-.27-1.53-.41-2.88-.41v-1.94h10.45l9.48,20.16,9.5-20.16h10.22v1.94c-1.76,0-2.89.26-3.4.77-.51.51-.77,1.38-.77,2.6v17.95c0,.77.08,1.4.25,1.88.17.48.56.85,1.17,1.11.61.26,1.53.39,2.75.39v1.94Z"/>
          <path class="st1" d="M718.74,222.1c0,1.6-.41,2.91-1.22,3.93-.82,1.02-1.85,1.79-3.1,2.32-1.25.53-2.47.87-3.67,1.04-1.19.17-2.35.25-3.45.25h-14.33v-1.94c1.22,0,2.12-.13,2.71-.38.58-.25.96-.61,1.14-1.07s.26-1.1.26-1.92v-18.04c0-1.26-.26-2.14-.78-2.63-.52-.49-1.63-.74-3.33-.74v-1.98c2.04-.04,3.98-.08,5.82-.13,1.84-.04,3.35-.07,4.54-.09,1.19-.02,2.02-.03,2.49-.03h.78c1.46,0,2.99.15,4.58.45,1.59.3,3.05.99,4.36,2.06,1.31,1.07,1.97,2.6,1.97,4.61,0,1.5-.53,2.8-1.6,3.88-1.07,1.08-2.82,1.97-5.25,2.68,1.66.29,3.1.79,4.33,1.48,1.23.69,2.16,1.58,2.79,2.65.63,1.07.95,2.27.95,3.6ZM711.49,207.98c0-.99-.24-1.84-.71-2.58-.47-.74-1.16-1.31-2.09-1.73-.92-.41-2.05-.62-3.38-.62h-2.21v10.24h1.73c2.26,0,3.94-.48,5.02-1.43,1.09-.95,1.63-2.25,1.63-3.87ZM712.27,221.74c0-1.94-.5-3.44-1.51-4.52-1-1.07-2.42-1.61-4.25-1.61h-3.41v7.44c0,1.04.06,1.85.19,2.43.13.58.44,1.03.95,1.35.5.32,1.31.47,2.4.47,1.46,0,2.76-.44,3.91-1.33,1.14-.88,1.72-2.3,1.72-4.23Z"/>
          <path class="st1" d="M751.48,203.01c-1.28,0-2.2.15-2.75.44-.55.29-.89.72-1.02,1.27-.13.55-.19,1.39-.19,2.53v10.54c0,1.94-.07,3.39-.2,4.37-.13.97-.49,1.96-1.06,2.96-1.07,1.93-2.56,3.25-4.48,3.97-1.92.72-3.76,1.08-5.53,1.08-1.31,0-2.65-.17-4.03-.52-1.38-.35-2.67-.91-3.87-1.7-1.19-.79-2.1-1.82-2.72-3.1-.34-.7-.6-1.41-.78-2.12-.18-.71-.29-1.38-.33-2-.04-.62-.05-1.44-.05-2.45l-.04-11.9c0-1.23-.24-2.11-.73-2.61-.48-.5-1.62-.76-3.4-.76v-1.94h14.41v1.94c-1.22,0-2.14.12-2.74.37-.6.25-1,.6-1.18,1.05-.18.46-.27,1.11-.27,1.95v11.9c0,1.22.06,2.29.18,3.21.12.92.31,1.72.56,2.41.48,1.14,1.29,2.05,2.43,2.73,1.14.68,2.4,1.02,3.78,1.02,1.47,0,2.85-.36,4.12-1.08,1.27-.72,2.15-1.66,2.64-2.81.39-.9.65-1.83.77-2.79.12-.96.18-2.11.18-3.45v-10.28c0-.93-.03-1.62-.09-2.06-.06-.45-.21-.85-.46-1.19-.25-.35-.67-.59-1.25-.75-.58-.15-1.39-.23-2.41-.23v-1.94h10.51v1.94Z"/>
          <path class="st1" d="M783.42,215.61c0,2.06-.35,3.93-1.05,5.59-.7,1.67-1.61,3.05-2.72,4.16-1.11,1.11-2.3,1.95-3.56,2.51-2.67,1.18-5.94,1.77-9.8,1.77h-13.04v-1.94c1.21,0,2.12-.12,2.74-.35.62-.23,1.02-.58,1.21-1.04.19-.46.29-1.12.29-1.98v-18.04c0-1.23-.25-2.1-.76-2.61-.5-.5-1.66-.76-3.47-.76v-1.98l6.13-.13c.21,0,1.07-.01,2.57-.04,1.5-.03,2.37-.04,2.61-.04,2.35,0,4.34.13,5.97.38,1.64.25,3.13.66,4.5,1.22,1.25.5,2.4,1.21,3.45,2.12,1.05.91,1.94,1.94,2.66,3.1.72,1.16,1.28,2.42,1.68,3.78.39,1.36.59,2.79.59,4.28ZM776.59,215.48c0-2.96-.57-5.45-1.7-7.45-1.13-2-2.66-3.39-4.6-4.16-.85-.34-1.74-.55-2.69-.64-.95-.09-2.31-.14-4.08-.14v20.08c0,1.15.06,1.99.17,2.52.11.53.44.93.99,1.2.55.27,1.4.41,2.55.41,3.41,0,5.83-1.19,7.24-3.58,1.41-2.39,2.12-5.13,2.12-8.24Z"/>
          <path class="st1" d="M808.3,221.44c0,.89-.19,1.82-.57,2.81-.38.99-.95,1.94-1.72,2.85-.77.91-1.73,1.64-2.9,2.21-1.17.57-2.51.85-4.05.85s-3.02-.33-4.52-.99c-1.5-.66-2.76-1.64-3.8-2.95-.45,1.04-.74,2-.86,2.89h-1.94v-9.77h1.94c.35,1.41.83,2.73,1.45,3.96.62,1.24,1.49,2.3,2.62,3.19,1.13.89,2.52,1.34,4.16,1.34,1.43,0,2.58-.39,3.44-1.18.86-.79,1.3-1.78,1.3-2.97,0-.67-.13-1.26-.4-1.77-.27-.5-.65-.96-1.16-1.36-.5-.4-1.2-.83-2.07-1.28-.88-.46-1.88-.94-3-1.44-1.73-.82-3.15-1.64-4.26-2.46-1.11-.83-1.95-1.63-2.52-2.41-.57-.78-.96-1.52-1.18-2.22-.22-.7-.33-1.41-.33-2.13,0-1.28.34-2.54,1.03-3.78.69-1.24,1.7-2.26,3.02-3.05,1.33-.79,2.86-1.19,4.6-1.19,1.33,0,2.6.3,3.81.89,1.21.6,2.25,1.42,3.14,2.46.25-.59.48-1.42.69-2.49h1.98v7.96h-1.98c-1.41-4.34-3.85-6.51-7.33-6.51-1.26,0-2.28.33-3.04,1-.77.67-1.15,1.53-1.15,2.58,0,.83.24,1.55.72,2.16.48.61,1.11,1.13,1.89,1.57.78.43,2.04,1.06,3.78,1.87,2.1,1,3.75,1.86,4.94,2.59,1.19.73,2.19,1.65,3.01,2.76.82,1.11,1.23,2.45,1.23,4.02Z"/>
          <path class="st1" d="M850.95,229.64h-14.33v-1.94c1.23,0,2.14-.12,2.72-.37.57-.24.95-.6,1.13-1.07.18-.47.26-1.11.26-1.93v-17.91l-10.79,23.22h-1.28l-10.93-23.22v17c0,.9.03,1.59.09,2.07.06.48.23.88.49,1.22.26.34.67.59,1.23.75.56.16,1.34.24,2.34.24v1.94h-10.58v-1.94c1.01,0,1.79-.09,2.35-.25.55-.17.96-.42,1.21-.76.26-.34.41-.74.46-1.21.06-.47.09-1.16.09-2.06v-16.18c0-1.21-.06-2.08-.19-2.61-.13-.54-.47-.94-1.04-1.21-.57-.27-1.53-.41-2.88-.41v-1.94h10.45l9.48,20.16,9.5-20.16h10.22v1.94c-1.76,0-2.89.26-3.4.77-.51.51-.77,1.38-.77,2.6v17.95c0,.77.08,1.4.25,1.88.17.48.56.85,1.17,1.11.61.26,1.53.39,2.75.39v1.94Z"/>
          <path class="st1" d="M881.3,229.64h-13.46v-1.94c1.14,0,1.97-.08,2.49-.24.52-.16.78-.54.78-1.15,0-.42-.08-.85-.25-1.28l-1.35-3.37h-9.27l-.69,1.86c-.4,1.04-.59,1.79-.59,2.25,0,.84.33,1.38.98,1.6.65.23,1.41.34,2.29.34v1.94h-9.84v-1.94c.79,0,1.45-.15,2-.44.55-.29,1.07-.85,1.57-1.67.5-.82,1.03-1.98,1.61-3.49l8.24-21.57h2l8.7,22.25c.63,1.57,1.09,2.64,1.39,3.19.29.56.7.99,1.22,1.29.52.3,1.25.45,2.19.45v1.94ZM868.75,219.59l-3.94-9.97-3.75,9.97h7.69Z"/>
          <path class="st1" d="M913.79,203.01c-1.36,0-2.34.14-2.93.41-.59.27-.95.68-1.09,1.21-.14.53-.21,1.41-.21,2.61v22.65h-1.94l-18.69-22.21v15.74c0,1.19.07,2.06.22,2.6.15.54.52.95,1.13,1.24.6.29,1.58.43,2.93.43v1.94h-10.62v-1.94c1.27,0,2.18-.15,2.75-.43.57-.29.92-.7,1.05-1.24.13-.54.2-1.41.2-2.6v-14.58c0-1.18-.03-2.06-.1-2.65-.06-.59-.21-1.11-.45-1.55-.24-.44-.63-.8-1.17-1.08-.54-.27-1.29-.46-2.24-.56v-1.94h8.32l16.27,19.22v-13.04c0-1.07-.07-1.89-.22-2.46-.15-.57-.51-1.01-1.09-1.31-.58-.31-1.51-.46-2.77-.46v-1.94h10.66v1.94Z"/>
        </g>
      </g>
    </g>
  </g>
  <g>
    <path class="st0" d="M226.14,29.92c-.12.2-.25.35-.39.45-.14.1-.31.15-.51.15-.23,0-.5-.11-.8-.34-.31-.23-.69-.48-1.15-.75s-1.01-.52-1.66-.75c-.65-.22-1.43-.34-2.35-.34-.87,0-1.63.12-2.29.35-.66.23-1.22.55-1.66.95-.45.4-.79.87-1.01,1.41-.23.54-.34,1.13-.34,1.75,0,.8.2,1.47.59,1.99s.91.98,1.56,1.35c.65.37,1.38.7,2.2.97.82.27,1.66.56,2.53.85.86.29,1.7.62,2.52.99.82.37,1.55.83,2.2,1.39.65.56,1.17,1.25,1.56,2.07.4.81.59,1.81.59,3,0,1.25-.22,2.43-.64,3.54-.43,1.1-1.05,2.06-1.87,2.87-.82.81-1.83,1.46-3.02,1.92s-2.55.7-4.08.7c-1.87,0-3.56-.34-5.08-1.01-1.52-.68-2.82-1.59-3.9-2.73l1.12-1.84c.11-.15.23-.27.39-.37.15-.1.32-.15.51-.15.18,0,.37.07.59.21.22.14.47.32.75.53.28.22.6.45.96.7s.77.49,1.23.7c.46.21.98.39,1.57.53.59.14,1.25.21,1.98.21.92,0,1.74-.12,2.46-.38s1.33-.61,1.84-1.07c.5-.46.88-1.01,1.15-1.65.27-.64.4-1.36.4-2.14,0-.87-.2-1.58-.59-2.13-.39-.55-.91-1.02-1.55-1.39-.64-.37-1.38-.69-2.2-.95s-1.67-.53-2.52-.8-1.69-.59-2.52-.95-1.56-.83-2.2-1.4c-.64-.57-1.16-1.29-1.55-2.15s-.59-1.93-.59-3.19c0-1.02.2-1.99.59-2.95.39-.95.97-1.79,1.72-2.52.76-.73,1.68-1.32,2.78-1.76,1.1-.44,2.37-.66,3.79-.66,1.6,0,3.06.25,4.38.76s2.47,1.24,3.47,2.2l-.94,1.84Z"/>
    <path class="st0" d="M248.63,33.85v20.29h-2.12c-.51,0-.83-.25-.96-.74l-.28-2.18c-.88.98-1.87,1.76-2.96,2.35-1.1.59-2.35.89-3.76.89-1.11,0-2.09-.18-2.93-.55s-1.56-.88-2.13-1.55c-.57-.66-1-1.47-1.29-2.42-.29-.95-.43-2-.43-3.15v-12.93h3.56v12.93c0,1.54.35,2.72,1.05,3.57s1.77,1.26,3.21,1.26c1.05,0,2.04-.25,2.96-.75.91-.5,1.76-1.19,2.53-2.07v-14.94h3.57Z"/>
    <path class="st0" d="M257.68,36.99c.85-1.06,1.84-1.9,2.96-2.54s2.41-.96,3.85-.96c1.17,0,2.24.22,3.18.67s1.76,1.11,2.42,1.98c.67.88,1.18,1.96,1.54,3.26.36,1.29.54,2.78.54,4.47,0,1.49-.2,2.89-.6,4.17-.4,1.29-.98,2.41-1.73,3.34-.76.95-1.68,1.69-2.76,2.22-1.09.54-2.31.81-3.68.81-1.24,0-2.3-.21-3.19-.63-.89-.42-1.67-1-2.35-1.75v8.97h-3.58v-27.15h2.14c.51,0,.82.25.94.74l.32,2.4ZM257.86,49.24c.66.88,1.37,1.5,2.14,1.86.78.36,1.64.54,2.6.54,1.9,0,3.35-.67,4.37-2.02,1.02-1.35,1.52-3.27,1.52-5.77,0-1.32-.12-2.46-.35-3.41-.23-.95-.57-1.72-1.01-2.33-.44-.61-.98-1.05-1.62-1.33-.64-.28-1.37-.42-2.18-.42-1.16,0-2.18.27-3.05.8-.88.53-1.68,1.29-2.42,2.26v9.81Z"/>
    <path class="st0" d="M280.13,36.99c.85-1.06,1.84-1.9,2.97-2.54s2.4-.96,3.84-.96c1.18,0,2.24.22,3.18.67.95.45,1.75,1.11,2.43,1.98.66.88,1.18,1.96,1.54,3.26.36,1.29.54,2.78.54,4.47,0,1.49-.2,2.89-.6,4.17-.4,1.29-.98,2.41-1.73,3.34-.75.95-1.68,1.69-2.76,2.22-1.09.54-2.31.81-3.67.81-1.25,0-2.31-.21-3.19-.63-.89-.42-1.68-1-2.35-1.75v8.97h-3.59v-27.15h2.14c.51,0,.82.25.94.74l.32,2.4ZM280.31,49.24c.65.88,1.37,1.5,2.14,1.86.77.36,1.64.54,2.6.54,1.9,0,3.35-.67,4.36-2.02,1.01-1.35,1.52-3.27,1.52-5.77,0-1.32-.12-2.46-.35-3.41-.23-.95-.57-1.72-1.01-2.33-.44-.61-.98-1.05-1.62-1.33-.64-.28-1.37-.42-2.18-.42-1.16,0-2.18.27-3.05.8s-1.68,1.29-2.41,2.26v9.81Z"/>
    <path class="st0" d="M302.86,24.64v29.5h-3.57v-29.5h3.57Z"/>
    <path class="st0" d="M326.13,33.85l-11.31,26.27c-.12.27-.27.48-.45.64-.18.16-.46.24-.83.24h-2.64l3.71-8.05-8.37-19.1h3.08c.31,0,.55.07.73.23.18.16.3.33.37.51l5.42,12.78c.22.56.4,1.15.54,1.76.19-.63.39-1.23.6-1.79l5.26-12.75c.08-.21.22-.39.41-.53.2-.14.41-.21.65-.21h2.82Z"/>
    <path class="st0" d="M333.8,27.48c0,.35-.07.67-.21.97-.14.3-.33.57-.56.8-.23.23-.51.42-.82.55-.32.14-.65.2-.99.2s-.67-.07-.97-.2c-.3-.13-.57-.31-.8-.55-.22-.23-.4-.5-.54-.8-.13-.3-.2-.63-.2-.97s.07-.68.2-.99c.14-.31.32-.59.54-.82.23-.23.49-.42.8-.55.3-.13.62-.2.97-.2s.67.07.99.2c.31.13.59.32.82.55.23.23.42.51.56.82.14.31.21.65.21.99ZM333.04,33.85v20.29h-3.57v-20.29h3.57Z"/>
    <path class="st0" d="M342.25,36.79c.44-.49.91-.94,1.4-1.34.5-.4,1.02-.74,1.57-1.03.55-.29,1.14-.51,1.76-.66.62-.15,1.29-.23,2.01-.23,1.11,0,2.09.18,2.93.55.85.37,1.55.89,2.12,1.56.57.67,1,1.48,1.29,2.43s.44,1.99.44,3.14v12.92h-3.59v-12.92c0-1.53-.35-2.72-1.05-3.57-.7-.85-1.77-1.27-3.19-1.27-1.06,0-2.04.25-2.95.76-.92.51-1.76,1.2-2.54,2.06v14.94h-3.59v-20.29h2.14c.51,0,.82.25.94.74l.28,2.2Z"/>
    <path class="st0" d="M378.35,34.65v1.32c0,.44-.28.72-.84.84l-2.3.3c.45.88.68,1.85.68,2.92,0,.99-.19,1.88-.57,2.69s-.9,1.5-1.57,2.07-1.47,1.02-2.4,1.32c-.94.31-1.95.46-3.04.46-.95,0-1.84-.11-2.69-.34-.43.26-.75.55-.98.85-.23.3-.34.61-.34.91,0,.48.2.84.59,1.09s.91.42,1.55.53c.64.11,1.37.17,2.19.2.82.03,1.66.07,2.52.13.86.06,1.7.16,2.53.31.82.15,1.55.38,2.19.72s1.16.79,1.55,1.38c.39.59.59,1.35.59,2.28,0,.87-.22,1.71-.65,2.53-.44.81-1.06,1.54-1.87,2.17-.81.63-1.81,1.14-3,1.52s-2.51.57-4,.57-2.78-.15-3.89-.44-2.03-.69-2.76-1.18c-.74-.5-1.29-1.07-1.66-1.71-.37-.65-.55-1.33-.55-2.03,0-1,.31-1.85.94-2.55s1.49-1.25,2.58-1.66c-.6-.26-1.08-.62-1.43-1.07-.36-.44-.53-1.05-.53-1.81,0-.29.06-.6.16-.91.1-.32.27-.63.49-.94.22-.31.49-.61.81-.89.32-.28.69-.53,1.12-.74-1-.56-1.78-1.31-2.34-2.24-.56-.93-.84-2-.84-3.23,0-.99.19-1.88.57-2.69.38-.81.91-1.5,1.59-2.06s1.49-1,2.43-1.31c.94-.31,1.98-.46,3.1-.46.88,0,1.7.1,2.46.29.76.2,1.45.48,2.08.85h5.51ZM374.73,55.24c0-.5-.14-.9-.42-1.2-.28-.31-.66-.55-1.13-.72-.48-.18-1.02-.3-1.65-.37s-1.29-.13-1.99-.17c-.7-.04-1.41-.08-2.13-.12-.72-.04-1.41-.11-2.08-.2-.75.35-1.36.78-1.83,1.31s-.71,1.14-.71,1.85c0,.46.12.88.35,1.27.23.39.59.73,1.07,1.02s1.09.51,1.81.68c.73.16,1.58.25,2.57.25s1.82-.08,2.58-.26c.76-.17,1.41-.42,1.93-.74.53-.33.93-.7,1.21-1.14s.42-.93.42-1.46ZM368.3,44.22c.72,0,1.36-.1,1.9-.3.54-.2,1-.48,1.38-.84.37-.36.65-.79.84-1.29.18-.5.28-1.05.28-1.65,0-1.24-.38-2.23-1.13-2.96-.76-.74-1.84-1.1-3.27-1.1s-2.54.37-3.3,1.1c-.75.73-1.13,1.72-1.13,2.96,0,.6.1,1.15.29,1.65s.48.93.85,1.29.83.64,1.38.84,1.18.3,1.9.3Z"/>
    <path class="st0" d="M395.72,36.99c.85-1.06,1.84-1.9,2.96-2.54s2.41-.96,3.85-.96c1.17,0,2.24.22,3.18.67.95.45,1.76,1.11,2.43,1.98.67.88,1.18,1.96,1.54,3.26.36,1.29.54,2.78.54,4.47,0,1.49-.2,2.89-.6,4.17-.4,1.29-.98,2.41-1.73,3.34-.76.95-1.68,1.69-2.76,2.22-1.09.54-2.31.81-3.68.81-1.24,0-2.31-.21-3.19-.63s-1.67-1-2.35-1.75v8.97h-3.59v-27.15h2.14c.51,0,.82.25.94.74l.32,2.4ZM395.9,49.24c.65.88,1.37,1.5,2.14,1.86.77.36,1.64.54,2.6.54,1.9,0,3.35-.67,4.37-2.02,1.01-1.35,1.52-3.27,1.52-5.77,0-1.32-.12-2.46-.35-3.41s-.57-1.72-1.01-2.33c-.44-.61-.98-1.05-1.62-1.33s-1.37-.42-2.18-.42c-1.16,0-2.18.27-3.06.8s-1.68,1.29-2.41,2.26v9.81Z"/>
    <path class="st0" d="M431.22,51.29c-.44.53-.97,1-1.58,1.39-.62.39-1.27.72-1.97.97-.7.25-1.43.44-2.17.57s-1.49.19-2.22.19c-1.4,0-2.7-.24-3.88-.71-1.18-.48-2.2-1.17-3.06-2.09-.86-.91-1.53-2.04-2.01-3.39-.48-1.35-.72-2.9-.72-4.64,0-1.41.22-2.74.65-3.97s1.06-2.29,1.87-3.19,1.81-1.61,2.98-2.12,2.5-.77,3.97-.77c1.21,0,2.34.2,3.37.61,1.03.41,1.93,1,2.68,1.77.76.77,1.34,1.71,1.77,2.84.43,1.13.64,2.41.64,3.85,0,.56-.06.94-.18,1.12-.12.19-.35.28-.68.28h-13.56c.04,1.28.22,2.4.53,3.34.31.95.75,1.74,1.31,2.37.56.64,1.23,1.11,2,1.42.78.32,1.64.47,2.6.47.9,0,1.67-.1,2.31-.31s1.2-.43,1.67-.67c.47-.24.86-.46,1.17-.67.32-.21.58-.31.81-.31.29,0,.52.11.68.34l1,1.3ZM428.34,41.77c0-.83-.12-1.58-.35-2.27-.23-.69-.57-1.28-1.02-1.79-.44-.5-.99-.89-1.63-1.16-.64-.27-1.37-.41-2.18-.41-1.71,0-3.06.5-4.05,1.49s-1.61,2.37-1.85,4.13h11.1Z"/>
    <path class="st0" d="M444.46,33.53c1.48,0,2.82.24,4,.74,1.19.5,2.2,1.2,3.04,2.11s1.49,2,1.93,3.29c.45,1.29.67,2.73.67,4.32s-.22,3.04-.67,4.33c-.45,1.28-1.09,2.37-1.93,3.28s-1.86,1.61-3.04,2.1c-1.19.48-2.52.73-4,.73s-2.84-.25-4.04-.73c-1.2-.49-2.22-1.19-3.06-2.1s-1.49-2-1.93-3.28c-.45-1.28-.67-2.72-.67-4.33s.22-3.02.67-4.32c.44-1.29,1.09-2.39,1.93-3.29s1.86-1.61,3.06-2.11c1.19-.49,2.54-.74,4.04-.74ZM444.46,51.63c2,0,3.49-.67,4.48-2.01.98-1.34,1.48-3.21,1.48-5.62s-.5-4.3-1.48-5.65c-.99-1.35-2.48-2.02-4.48-2.02-1.02,0-1.9.17-2.66.52-.75.35-1.38.85-1.88,1.5-.5.66-.87,1.46-1.12,2.41-.25.96-.37,2.03-.37,3.23,0,2.41.5,4.28,1.49,5.62.99,1.34,2.5,2.01,4.54,2.01Z"/>
    <path class="st0" d="M462.02,36.99c.85-1.06,1.84-1.9,2.96-2.54s2.41-.96,3.85-.96c1.17,0,2.24.22,3.18.67s1.76,1.11,2.42,1.98c.67.88,1.18,1.96,1.54,3.26.36,1.29.54,2.78.54,4.47,0,1.49-.2,2.89-.6,4.17-.4,1.29-.98,2.41-1.73,3.34-.76.95-1.68,1.69-2.76,2.22-1.09.54-2.31.81-3.68.81-1.24,0-2.3-.21-3.19-.63-.89-.42-1.67-1-2.35-1.75v8.97h-3.58v-27.15h2.14c.51,0,.82.25.94.74l.32,2.4ZM462.2,49.24c.66.88,1.37,1.5,2.14,1.86.78.36,1.64.54,2.6.54,1.9,0,3.35-.67,4.37-2.02,1.02-1.35,1.52-3.27,1.52-5.77,0-1.32-.12-2.46-.35-3.41-.23-.95-.57-1.72-1.01-2.33-.44-.61-.98-1.05-1.62-1.33-.64-.28-1.37-.42-2.18-.42-1.16,0-2.18.27-3.05.8-.88.53-1.68,1.29-2.42,2.26v9.81Z"/>
    <path class="st0" d="M484.75,24.64v29.5h-3.57v-29.5h3.57Z"/>
    <path class="st0" d="M506.98,51.29c-.44.53-.96,1-1.58,1.39-.61.39-1.27.72-1.97.97-.7.25-1.43.44-2.18.57-.74.13-1.49.19-2.22.19-1.4,0-2.7-.24-3.88-.71-1.18-.48-2.2-1.17-3.06-2.09-.86-.91-1.53-2.04-2.01-3.39-.48-1.35-.72-2.9-.72-4.64,0-1.41.22-2.74.65-3.97s1.06-2.29,1.87-3.19,1.81-1.61,2.98-2.12,2.5-.77,3.97-.77c1.21,0,2.34.2,3.37.61,1.04.41,1.93,1,2.69,1.77.76.77,1.34,1.71,1.77,2.84.42,1.13.64,2.41.64,3.85,0,.56-.06.94-.18,1.12-.12.19-.35.28-.68.28h-13.56c.04,1.28.22,2.4.53,3.34.31.95.75,1.74,1.31,2.37.56.64,1.23,1.11,2,1.42.78.32,1.64.47,2.6.47.9,0,1.67-.1,2.31-.31.65-.21,1.21-.43,1.68-.67.46-.24.85-.46,1.17-.67.31-.21.58-.31.81-.31.29,0,.52.11.68.34l1,1.3ZM504.1,41.77c0-.83-.12-1.58-.35-2.27-.23-.69-.57-1.28-1.02-1.79-.44-.5-.99-.89-1.63-1.16-.64-.27-1.37-.41-2.18-.41-1.71,0-3.06.5-4.05,1.49s-1.61,2.37-1.85,4.13h11.1Z"/>
    <path class="st0" d="M521.4,36.71c1.12-1.08,2.33-1.89,3.62-2.42,1.3-.53,2.73-.8,4.31-.8,1.13,0,2.14.19,3.02.56.89.37,1.62.9,2.22,1.56.61.67,1.06,1.48,1.36,2.43.31.95.46,1.99.46,3.12v12.98h-1.58c-.35,0-.61-.06-.8-.17-.18-.12-.33-.34-.44-.67l-.4-1.92c-.53.49-1.05.93-1.56,1.31-.51.38-1.04.7-1.6.96s-1.16.46-1.79.6c-.63.14-1.34.21-2.11.21s-1.53-.11-2.22-.33c-.7-.22-1.3-.55-1.81-.99-.51-.44-.92-1-1.22-1.67-.31-.68-.46-1.47-.46-2.4,0-.8.22-1.57.66-2.31.44-.74,1.15-1.4,2.14-1.98.98-.57,2.28-1.04,3.86-1.41,1.59-.37,3.54-.58,5.85-.63v-1.58c0-1.57-.34-2.76-1.02-3.57-.68-.81-1.68-1.21-2.99-1.21-.88,0-1.62.11-2.21.33-.6.22-1.11.47-1.54.74s-.81.52-1.12.74-.63.33-.93.33c-.24,0-.44-.06-.62-.19s-.32-.28-.44-.47l-.64-1.14ZM532.91,45c-1.64.05-3.04.18-4.19.39-1.15.21-2.1.48-2.82.81-.73.34-1.26.73-1.58,1.18s-.49.96-.49,1.52.08.99.26,1.38c.17.38.41.7.71.95s.65.43,1.06.54c.4.11.84.17,1.31.17.63,0,1.2-.07,1.72-.19.52-.13,1.01-.31,1.47-.55.46-.24.9-.53,1.32-.86.42-.33.83-.71,1.23-1.14v-4.2Z"/>
    <path class="st0" d="M545.18,36.79c.44-.49.91-.94,1.41-1.34.49-.4,1.02-.74,1.57-1.03.55-.29,1.14-.51,1.76-.66s1.29-.23,2.01-.23c1.11,0,2.09.18,2.93.55.85.37,1.55.89,2.12,1.56.57.67,1,1.48,1.3,2.43s.44,1.99.44,3.14v12.92h-3.59v-12.92c0-1.53-.35-2.72-1.05-3.57s-1.77-1.27-3.19-1.27c-1.06,0-2.04.25-2.95.76-.91.51-1.76,1.2-2.54,2.06v14.94h-3.59v-20.29h2.14c.51,0,.82.25.94.74l.28,2.2Z"/>
    <path class="st0" d="M580.95,24.64v29.5h-2.12c-.51,0-.83-.25-.96-.74l-.32-2.46c-.87,1.04-1.86,1.88-2.97,2.52-1.11.64-2.39.96-3.84.96-1.17,0-2.22-.22-3.17-.67-.95-.45-1.75-1.1-2.43-1.98-.66-.87-1.18-1.95-1.54-3.24s-.54-2.78-.54-4.47c0-1.5.2-2.88.6-4.18.4-1.29.98-2.41,1.72-3.35.75-.95,1.67-1.69,2.76-2.23s2.31-.81,3.67-.81c1.25,0,2.31.21,3.19.63.89.42,1.68,1.01,2.37,1.75v-11.23h3.57ZM577.39,38.67c-.66-.89-1.39-1.52-2.16-1.87-.78-.35-1.64-.53-2.61-.53-1.88,0-3.33.67-4.34,2.02-1.02,1.35-1.53,3.27-1.53,5.77,0,1.32.12,2.45.34,3.39.23.94.56,1.72,1,2.32.44.61.98,1.05,1.62,1.33s1.37.42,2.18.42c1.17,0,2.2-.27,3.07-.8s1.68-1.29,2.41-2.27v-9.79Z"/>
    <path class="st0" d="M600.24,37.91c.64-1.39,1.43-2.47,2.36-3.26.93-.78,2.07-1.17,3.42-1.17.43,0,.84.05,1.23.14.4.09.74.24,1.06.44l-.26,2.66c-.08.34-.28.5-.61.5-.18,0-.46-.04-.81-.12-.37-.08-.77-.12-1.23-.12-.64,0-1.21.09-1.71.28-.5.19-.95.46-1.34.83-.4.37-.75.82-1.06,1.36s-.6,1.16-.85,1.85v12.82h-3.59v-20.29h2.05c.38,0,.65.07.8.22.14.15.24.4.3.76l.24,3.09Z"/>
    <path class="st0" d="M627.07,51.29c-.44.53-.96,1-1.58,1.39-.61.39-1.27.72-1.97.97-.7.25-1.43.44-2.18.57-.74.13-1.49.19-2.22.19-1.41,0-2.7-.24-3.88-.71-1.18-.48-2.2-1.17-3.06-2.09-.86-.91-1.53-2.04-2.01-3.39-.48-1.35-.72-2.9-.72-4.64,0-1.41.22-2.74.65-3.97.43-1.23,1.06-2.29,1.87-3.19s1.81-1.61,2.99-2.12c1.17-.51,2.49-.77,3.96-.77,1.21,0,2.34.2,3.37.61,1.04.41,1.93,1,2.69,1.77.76.77,1.34,1.71,1.77,2.84.42,1.13.64,2.41.64,3.85,0,.56-.06.94-.18,1.12-.12.19-.35.28-.68.28h-13.56c.05,1.28.22,2.4.53,3.34.31.95.75,1.74,1.31,2.37.56.64,1.23,1.11,2,1.42.78.32,1.64.47,2.61.47.89,0,1.66-.1,2.31-.31.65-.21,1.21-.43,1.68-.67s.85-.46,1.17-.67c.31-.21.58-.31.81-.31.29,0,.52.11.68.34l1,1.3ZM624.19,41.77c0-.83-.12-1.58-.35-2.27-.23-.69-.57-1.28-1.02-1.79-.44-.5-.99-.89-1.63-1.16s-1.37-.41-2.18-.41c-1.71,0-3.06.5-4.05,1.49s-1.61,2.37-1.85,4.13h11.1Z"/>
    <path class="st0" d="M643.57,37.19c-.16.29-.4.44-.74.44-.2,0-.43-.07-.68-.22-.25-.15-.56-.31-.93-.5-.37-.18-.8-.35-1.31-.5s-1.11-.23-1.8-.23c-.6,0-1.14.08-1.62.23s-.89.37-1.23.63c-.34.27-.6.58-.78.93-.18.36-.27.74-.27,1.15,0,.52.15.95.45,1.3s.7.65,1.19.9c.49.25,1.05.48,1.68.67.63.19,1.27.4,1.93.62s1.3.46,1.94.73c.63.27,1.19.6,1.68,1,.49.4.89.89,1.19,1.47.3.58.45,1.28.45,2.09,0,.94-.16,1.8-.5,2.59-.34.8-.83,1.48-1.49,2.07-.65.58-1.45,1.04-2.4,1.37-.95.33-2.05.5-3.29.5-1.41,0-2.7-.23-3.85-.69-1.15-.46-2.13-1.05-2.92-1.77l.84-1.36c.1-.17.23-.31.38-.4.14-.09.33-.14.56-.14.24,0,.5.09.76.28.27.19.59.4.97.62.38.22.84.43,1.39.62.55.19,1.23.28,2.05.28.69,0,1.3-.09,1.82-.27.52-.18.96-.42,1.3-.73s.6-.66.77-1.06c.17-.4.25-.83.25-1.28,0-.56-.15-1.03-.45-1.4-.3-.37-.7-.68-1.19-.94-.5-.26-1.06-.49-1.69-.68-.63-.19-1.28-.39-1.94-.61-.66-.22-1.31-.46-1.94-.73s-1.2-.62-1.69-1.03c-.49-.41-.89-.92-1.19-1.53-.3-.61-.45-1.34-.45-2.21,0-.78.16-1.52.48-2.24.32-.71.79-1.34,1.4-1.88s1.37-.97,2.26-1.29c.9-.32,1.92-.48,3.06-.48,1.34,0,2.54.21,3.6.63s1.98,1,2.75,1.73l-.8,1.3Z"/>
    <path class="st0" d="M657.65,33.53c1.48,0,2.82.24,4,.74,1.19.5,2.2,1.2,3.04,2.11s1.49,2,1.93,3.29c.45,1.29.67,2.73.67,4.32s-.22,3.04-.67,4.33c-.44,1.28-1.09,2.37-1.93,3.28s-1.86,1.61-3.04,2.1c-1.19.48-2.52.73-4,.73s-2.84-.25-4.04-.73c-1.2-.49-2.22-1.19-3.06-2.1s-1.49-2-1.93-3.28c-.45-1.28-.67-2.72-.67-4.33s.22-3.02.67-4.32c.44-1.29,1.09-2.39,1.93-3.29s1.86-1.61,3.06-2.11c1.19-.49,2.54-.74,4.04-.74ZM657.65,51.63c2,0,3.49-.67,4.48-2.01.98-1.34,1.48-3.21,1.48-5.62s-.5-4.3-1.48-5.65c-.99-1.35-2.48-2.02-4.48-2.02-1.02,0-1.9.17-2.65.52-.76.35-1.38.85-1.88,1.5-.5.66-.87,1.46-1.12,2.41-.25.96-.37,2.03-.37,3.23,0,2.41.5,4.28,1.49,5.62.99,1.34,2.5,2.01,4.54,2.01Z"/>
    <path class="st0" d="M688.49,33.85v20.29h-2.12c-.51,0-.83-.25-.96-.74l-.28-2.18c-.88.98-1.86,1.76-2.96,2.35s-2.35.89-3.77.89c-1.11,0-2.09-.18-2.93-.55s-1.56-.88-2.13-1.55c-.57-.66-1-1.47-1.29-2.42-.29-.95-.43-2-.43-3.15v-12.93h3.56v12.93c0,1.54.35,2.72,1.06,3.57.7.84,1.77,1.26,3.21,1.26,1.06,0,2.04-.25,2.95-.75s1.76-1.19,2.54-2.07v-14.94h3.56Z"/>
    <path class="st0" d="M697.52,37.91c.64-1.39,1.43-2.47,2.37-3.26.93-.78,2.07-1.17,3.42-1.17.42,0,.83.05,1.23.14.39.09.74.24,1.05.44l-.26,2.66c-.08.34-.28.5-.6.5-.19,0-.46-.04-.82-.12s-.77-.12-1.22-.12c-.65,0-1.21.09-1.71.28-.5.19-.95.46-1.34.83-.39.37-.75.82-1.06,1.36s-.59,1.16-.85,1.85v12.82h-3.59v-20.29h2.04c.39,0,.66.07.8.22.15.15.25.4.3.76l.24,3.09Z"/>
    <path class="st0" d="M722.01,37.45c-.1.14-.22.26-.32.34s-.25.12-.44.12-.42-.08-.66-.25c-.24-.17-.53-.35-.89-.55-.35-.2-.79-.38-1.3-.55-.51-.17-1.15-.25-1.9-.25-1,0-1.88.18-2.64.53s-1.4.87-1.92,1.53c-.51.67-.9,1.48-1.16,2.43-.26.95-.39,2.01-.39,3.18,0,1.23.14,2.32.42,3.28s.68,1.76,1.19,2.4c.51.65,1.13,1.14,1.86,1.48.73.34,1.54.51,2.46.51s1.58-.1,2.14-.31c.56-.21,1.03-.44,1.4-.69s.67-.48.92-.69c.25-.21.49-.31.73-.31.29,0,.52.11.68.34l1,1.3c-.44.55-.94,1.01-1.5,1.4s-1.17.71-1.81.97-1.32.45-2.03.57c-.7.12-1.43.18-2.16.18-1.26,0-2.44-.23-3.53-.7-1.09-.47-2.03-1.14-2.83-2.03-.8-.89-1.43-1.98-1.88-3.28-.46-1.29-.68-2.77-.68-4.43,0-1.51.22-2.9.63-4.19.42-1.28,1.04-2.39,1.84-3.31.81-.93,1.8-1.66,2.98-2.17,1.19-.52,2.54-.78,4.08-.78,1.43,0,2.69.23,3.77.69,1.09.46,2.05,1.11,2.89,1.95l-.95,1.28Z"/>
    <path class="st0" d="M743.12,51.29c-.44.53-.96,1-1.58,1.39-.61.39-1.27.72-1.97.97-.7.25-1.43.44-2.18.57-.74.13-1.49.19-2.22.19-1.41,0-2.7-.24-3.88-.71-1.18-.48-2.2-1.17-3.06-2.09-.86-.91-1.53-2.04-2.01-3.39-.48-1.35-.72-2.9-.72-4.64,0-1.41.22-2.74.65-3.97.43-1.23,1.06-2.29,1.87-3.19s1.81-1.61,2.99-2.12c1.17-.51,2.49-.77,3.96-.77,1.21,0,2.34.2,3.37.61,1.04.41,1.93,1,2.69,1.77.76.77,1.34,1.71,1.77,2.84.42,1.13.64,2.41.64,3.85,0,.56-.06.94-.18,1.12-.12.19-.35.28-.68.28h-13.56c.05,1.28.22,2.4.53,3.34.31.95.75,1.74,1.31,2.37.56.64,1.23,1.11,2,1.42.78.32,1.64.47,2.61.47.89,0,1.66-.1,2.31-.31.65-.21,1.21-.43,1.68-.67s.85-.46,1.17-.67c.31-.21.58-.31.81-.31.29,0,.52.11.68.34l1,1.3ZM740.24,41.77c0-.83-.12-1.58-.35-2.27-.23-.69-.57-1.28-1.02-1.79-.44-.5-.99-.89-1.63-1.16s-1.37-.41-2.18-.41c-1.71,0-3.06.5-4.05,1.49s-1.61,2.37-1.85,4.13h11.1Z"/>
    <path class="st0" d="M764.29,54.45c-1.6,0-2.83-.45-3.69-1.34-.87-.89-1.3-2.18-1.3-3.87v-12.42h-2.44c-.22,0-.4-.06-.54-.19-.15-.12-.22-.32-.22-.59v-1.42l3.32-.42.82-6.27c.04-.2.13-.36.27-.49.14-.12.33-.19.55-.19h1.8v6.99h5.87v2.58h-5.87v12.17c0,.86.21,1.49.62,1.9s.95.62,1.6.62c.37,0,.7-.05.97-.15.27-.1.51-.21.71-.33.2-.12.37-.23.51-.33.14-.1.26-.15.37-.15.19,0,.36.11.5.34l1.04,1.7c-.61.57-1.36,1.03-2.22,1.36-.87.33-1.76.49-2.69.49Z"/>
    <path class="st0" d="M780.87,33.53c1.48,0,2.82.24,4,.74,1.19.5,2.2,1.2,3.04,2.11s1.49,2,1.93,3.29c.45,1.29.67,2.73.67,4.32s-.22,3.04-.67,4.33c-.44,1.28-1.09,2.37-1.93,3.28s-1.86,1.61-3.04,2.1c-1.19.48-2.52.73-4,.73s-2.84-.25-4.04-.73c-1.2-.49-2.22-1.19-3.06-2.1s-1.49-2-1.93-3.28c-.45-1.28-.67-2.72-.67-4.33s.22-3.02.67-4.32c.44-1.29,1.09-2.39,1.93-3.29s1.86-1.61,3.06-2.11c1.19-.49,2.54-.74,4.04-.74ZM780.87,51.63c2,0,3.49-.67,4.48-2.01.98-1.34,1.48-3.21,1.48-5.62s-.5-4.3-1.48-5.65c-.99-1.35-2.48-2.02-4.48-2.02-1.02,0-1.9.17-2.65.52-.76.35-1.38.85-1.88,1.5-.5.66-.87,1.46-1.12,2.41-.25.96-.37,2.03-.37,3.23,0,2.41.5,4.28,1.49,5.62.99,1.34,2.5,2.01,4.54,2.01Z"/>
  </g>
</svg>