<?xml version="1.0" encoding="UTF-8"?>
<svg id="Layer_1" xmlns="http://www.w3.org/2000/svg" version="1.1" viewBox="0 0 600 600">
  <!-- Generator: Adobe Illustrator 29.5.1, SVG Export Plug-In . SVG Version: 2.1.0 Build 141)  -->
  <defs>
    <style>
      .st0 {
        fill: #fff;
        fill-rule: evenodd;
      }

      .st1 {
        fill: #144d60;
      }
    </style>
  </defs>
  <circle class="st1" cx="300" cy="300" r="300"/>
  <g>
    <path class="st0" d="M222.53,430.33v-183.03h-60.82v183.03h60.82ZM192.13,222.32c21.21,0,34.41-14.07,34.41-31.64-.39-17.96-13.2-31.62-34.02-31.62s-34.41,13.67-34.41,31.62,13.2,31.64,33.61,31.64h.41Z"/>
    <path class="st0" d="M256.19,430.33h60.84v-102.21c0-5.47.39-10.93,2.01-14.84,4.39-10.94,14.41-22.25,31.2-22.25,22.03,0,30.83,16.79,30.83,41.39v97.92h60.82v-104.95c0-56.21-30.01-82.37-70.03-82.37-32.82,0-47.23,18.35-55.23,30.83h.4v-26.54h-60.84c.8,17.16,0,183.03,0,183.03h0Z"/>
  </g>
</svg>