<?xml version="1.0" encoding="UTF-8"?>
<svg id="Layer_1" xmlns="http://www.w3.org/2000/svg" version="1.1" viewBox="0 0 1200 400">
  <!-- Generator: Adobe Illustrator 29.5.1, SVG Export Plug-In . SVG Version: 2.1.0 Build 141)  -->
  <defs>
    <style>
      .st0 {
        fill: #7d8182;
      }

      .st1 {
        fill: #101418;
      }

      .st2 {
        fill: #00a69c;
      }

      .st3 {
        fill: #fff;
      }

      .st4 {
        fill: #572d87;
      }

      .st5 {
        fill: #1b4d60;
      }
    </style>
  </defs>
  <rect class="st3" x="100" width="1000" height="400"/>
  <g>
    <g>
      <path class="st1" d="M334.2,149.48c0-23.62,18.56-43.02,42.17-43.02s42.29,19.4,42.29,43.02-18.8,42.89-42.29,42.89-42.17-19.4-42.17-42.89ZM401.8,149.48c0-14.94-10.6-27.23-25.42-27.23s-25.42,12.29-25.42,27.23,10.48,27.11,25.42,27.11,25.42-12.17,25.42-27.11Z"/>
      <path class="st1" d="M520.97,160.08v30.85h-15.91v-30.36c0-8.8-4.57-12.53-10.12-12.53-6.75-.12-11.09,4.7-11.09,15.18v27.72h-15.79v-30.12c0-8.92-4.58-12.77-9.88-12.77-5.67,0-11.45,3.13-11.45,13.25v29.65h-15.79v-56.27h15.79v9.04c2.29-6.99,9.88-10.48,15.9-10.48,8.32,0,14.71,3.98,18.08,11.09,4.1-8.19,12.89-11.09,18.8-11.09,14.1,0,21.45,10,21.45,26.87Z"/>
      <path class="st1" d="M597.5,162.73c0,18.07-13.14,29.64-27.59,29.64-6.38,0-14.1-2.65-18.07-8.43v6.99h-15.79v-86.88h15.79v37.36c3.98-5.66,11.69-8.19,18.07-8.19,14.46,0,27.59,11.45,27.59,29.52ZM581.35,162.73c0-8.32-6.5-14.82-14.46-14.82-7.35,0-14.58,6.14-14.58,14.82s6.87,14.94,14.58,14.94,14.46-6.75,14.46-14.94Z"/>
      <path class="st1" d="M648.48,134.65h15.79v56.27h-15.79v-9.16c-2.41,7.35-11.33,10.6-16.87,10.6-14.7,0-22.41-9.88-22.29-26.75v-30.97h15.79v30.13c0,8.79,5.3,12.89,10.72,12.89s12.65-3.13,12.65-13.25v-29.76Z"/>
      <path class="st1" d="M722.47,104.05h15.79v86.88h-15.79v-6.99c-3.98,5.78-11.81,8.43-18.07,8.43-14.46,0-27.59-11.57-27.59-29.64s13.14-29.52,27.59-29.52c6.5,0,14.1,2.53,18.07,8.32v-37.48ZM721.98,162.73c0-8.68-7.23-14.82-14.58-14.82-7.95,0-14.58,6.5-14.58,14.82s6.63,14.94,14.58,14.94,14.58-6.38,14.58-14.94Z"/>
      <path class="st1" d="M750.67,173.21h14.82c0,3.26,2.77,6.75,8.32,6.75,4.57,0,8.07-2.29,8.07-5.55,0-2.41-1.92-3.61-6.14-4.7l-7.47-1.8c-14.46-3.86-16.39-11.93-16.39-17.83,0-8.67,9.04-16.87,22.06-16.87,10.24,0,22.29,4.94,22.17,18.31h-15.06c0-3.86-3.13-5.9-6.87-5.9s-6.5,2.05-6.5,4.94c0,2.65,2.41,3.97,5.55,4.82l9.27,2.41c13.5,3.61,15.18,12.05,15.18,16.63,0,11.81-12.04,17.95-23.61,17.95s-23.26-6.75-23.38-19.16Z"/>
      <path class="st1" d="M835.86,149.48c0-23.62,18.56-43.02,42.42-43.02,12.53,0,23.5,5.18,30.73,13.25l-12.17,10.48c-4.7-5.06-11.33-8.19-18.56-8.19-14.46,0-25.66,12.65-25.66,27.47s10.96,27.83,26.15,27.83c10.84,0,21.57-6.5,21.57-16.15h-23.5v-13.61h41.81c0,30.73-16.99,44.82-39.52,44.82-25.06,0-43.26-19.4-43.26-42.89Z"/>
      <path class="st1" d="M971.2,135.01l-3.62,15.06c-3.37-1.81-6.14-2.05-8.07-2.05-8.07,0-13.62,7.59-13.62,23.62v19.28h-15.79v-56.27h15.67v12.05c3.13-9.4,9.52-13.5,16.51-13.5,3.01,0,6.38.48,8.92,1.81Z"/>
      <path class="st1" d="M974.45,162.85c0-17.83,14.22-29.64,30.24-29.64s30.24,11.81,30.24,29.64-14.22,29.52-30.24,29.52-30.24-11.81-30.24-29.52ZM1018.91,162.85c0-8.8-6.38-14.94-14.22-14.94s-14.22,6.14-14.22,14.94,6.39,14.82,14.22,14.82,14.22-6.14,14.22-14.82Z"/>
      <path class="st1" d="M1085.79,134.65h15.79v56.27h-15.79v-9.16c-2.41,7.35-11.33,10.6-16.87,10.6-14.71,0-22.42-9.88-22.3-26.75v-30.97h15.79v30.13c0,8.79,5.3,12.89,10.72,12.89s12.65-3.13,12.65-13.25v-29.76Z"/>
      <path class="st1" d="M1178.94,162.73c0,18.19-13.14,29.64-27.59,29.64-6.38,0-14.1-2.65-18.07-8.43v34.58h-15.79v-83.87h15.79v6.87c3.98-5.66,11.69-8.32,18.07-8.32,14.46,0,27.59,11.57,27.59,29.52ZM1162.8,162.85c0-8.32-6.5-14.94-14.46-14.94s-14.58,6.38-14.58,14.94,7.24,14.82,14.58,14.82c7.95,0,14.46-6.5,14.46-14.82Z"/>
    </g>
    <g>
      <path class="st0" d="M340.19,275.86v-42.99h5.68v42.99h-5.68Z"/>
      <path class="st0" d="M383,259.02v16.84h-5.43v-16.53c0-4.87-2.99-7.99-7.05-7.99s-8.92,2.43-8.92,8.73v15.78h-5.43v-29.14h5.43v4.43c1.75-3.56,6.49-5.18,9.67-5.18,7.24,0,11.79,4.87,11.73,13.04Z"/>
      <path class="st0" d="M389.74,267.31h5.05c.06,2.5,2.25,4.55,5.8,4.55s5.86-1.81,5.86-4.18c0-2.18-1.68-3.31-3.99-3.81l-3.99-.94c-4.87-1.31-7.67-3.68-7.67-8.36s4.12-8.61,9.98-8.61c4.93,0,10.04,2.62,10.04,8.48h-5.24c-.06-2.24-2.37-3.74-4.68-3.74-2.81,0-4.68,1.81-4.68,4.06,0,2,1.87,3.06,3.74,3.49l4.31,1.06c6.05,1.5,7.61,5.12,7.61,8.42,0,5.43-5.24,8.86-11.29,8.86-5.24,0-10.61-3.31-10.86-9.3Z"/>
      <path class="st0" d="M449.58,261.32c0,9.23-6.55,15.28-14.54,15.28-4.37,0-8.49-1.87-10.42-5.3v18.72h-5.43v-43.3h5.43v4.55c1.93-3.31,6.18-5.3,10.36-5.3,7.99,0,14.6,6.18,14.6,15.35ZM444.09,261.39c0-5.8-4.24-10.3-9.61-10.3s-9.86,4.06-9.86,10.3,5.12,10.11,9.86,10.11c5.37,0,9.61-4.24,9.61-10.11Z"/>
      <path class="st0" d="M456.01,235.99c0-2.06,1.75-3.62,3.81-3.62s3.87,1.56,3.87,3.62-1.75,3.62-3.87,3.62-3.81-1.56-3.81-3.62ZM457.14,275.86v-29.14h5.43v29.14h-5.43Z"/>
      <path class="st0" d="M490.71,247.1l-.87,5.12c-1.56-.75-3.12-1-4.24-1-5.8,0-8.11,6.3-8.11,13.98v10.67h-5.49v-29.14h5.49v6.61c1.5-5.12,4.31-7.36,8.17-7.36,2.06,0,4.18.56,5.05,1.12Z"/>
      <path class="st0" d="M495.02,235.99c0-2.06,1.75-3.62,3.81-3.62s3.87,1.56,3.87,3.62-1.75,3.62-3.87,3.62-3.81-1.56-3.81-3.62ZM496.14,275.86v-29.14h5.43v29.14h-5.43Z"/>
      <path class="st0" d="M537.82,259.02v16.84h-5.43v-16.53c0-4.87-2.99-7.99-7.05-7.99s-8.92,2.43-8.92,8.73v15.78h-5.43v-29.14h5.43v4.43c1.75-3.56,6.49-5.18,9.67-5.18,7.24,0,11.79,4.87,11.73,13.04Z"/>
      <path class="st0" d="M569.9,246.72h5.43v25.08c0,13.79-6.24,18.97-15.85,18.97-5.3,0-10.23-2.68-13.1-7.8l4.62-2.43c1.81,3.31,5.24,5.12,8.49,5.12,6.42,0,10.42-3.62,10.42-13.48v-.87c-1.93,3.31-6.18,5.3-10.36,5.3-7.99,0-14.6-6.18-14.6-15.35s6.55-15.28,14.54-15.28c4.37,0,8.48,1.93,10.42,5.3v-4.55ZM569.9,261.2c0-6.3-5.12-10.11-9.92-10.11-5.3,0-9.55,4.24-9.55,10.11s4.24,10.29,9.55,10.29,9.92-4.06,9.92-10.29Z"/>
      <path class="st0" d="M598.55,261.26c0-9.23,7.3-15.28,15.66-15.28,4.55,0,8.55,1.81,11.11,4.62l-3.43,3.56c-1.81-1.87-4.43-3.06-7.49-3.06-5.74,0-10.36,4.18-10.36,10.17s4.62,10.23,10.36,10.23c3.06,0,5.68-1.19,7.49-3.06l3.43,3.56c-2.56,2.87-6.55,4.61-11.11,4.61-8.36,0-15.66-6.11-15.66-15.35Z"/>
      <path class="st0" d="M629.44,261.26c0-9.23,6.93-15.28,15.22-15.28s15.28,6.05,15.28,15.28-6.99,15.35-15.28,15.35-15.22-6.11-15.22-15.35ZM654.52,261.26c0-5.99-4.49-10.17-9.86-10.17s-9.73,4.18-9.73,10.17,4.43,10.23,9.73,10.23,9.86-4.18,9.86-10.23Z"/>
      <path class="st0" d="M694.33,259.02v16.84h-5.43v-16.53c0-4.87-2.99-7.99-7.05-7.99s-8.92,2.43-8.92,8.73v15.78h-5.43v-29.14h5.43v4.43c1.75-3.56,6.49-5.18,9.67-5.18,7.24,0,11.79,4.87,11.73,13.04Z"/>
      <path class="st0" d="M701.08,267.31h5.05c.06,2.5,2.24,4.55,5.8,4.55s5.87-1.81,5.87-4.18c0-2.18-1.68-3.31-3.99-3.81l-3.99-.94c-4.87-1.31-7.67-3.68-7.67-8.36s4.12-8.61,9.98-8.61c4.93,0,10.04,2.62,10.04,8.48h-5.24c-.06-2.24-2.37-3.74-4.68-3.74-2.81,0-4.68,1.81-4.68,4.06,0,2,1.87,3.06,3.75,3.49l4.3,1.06c6.05,1.5,7.61,5.12,7.61,8.42,0,5.43-5.24,8.86-11.29,8.86-5.24,0-10.6-3.31-10.85-9.3Z"/>
      <path class="st0" d="M751.56,246.72h5.43v29.14h-5.43v-4.55c-1.75,3.68-6.43,5.3-9.67,5.3-7.3,0-11.79-4.86-11.73-13.04v-16.85h5.43v16.72c0,4.93,2.93,8.05,6.99,8.05s8.92-2.43,8.98-8.73v-16.04Z"/>
      <path class="st0" d="M812.28,259.02v16.84h-5.43v-16.53c0-4.87-2.68-8.11-6.93-8.11-5.18-.06-7.86,3.56-7.86,10.04v14.6h-5.43v-16.53c0-4.93-2.68-8.11-6.55-8.11-4.12,0-8.24,2.68-8.24,8.86v15.78h-5.43v-29.14h5.43v4.49c1.44-3.18,5.24-5.24,9.36-5.24s7.92,2.25,9.61,6.24c2.68-5.24,7.24-6.24,10.17-6.24,7.3,0,11.29,4.87,11.29,13.04Z"/>
      <path class="st0" d="M848.72,263.63h-23.71c.81,5.18,4.55,7.86,9.55,7.86,3.56,0,6.8-1.62,8.49-4.55l4.68,1.87c-2.49,5.05-7.74,7.8-13.35,7.8-8.3,0-14.97-6.18-14.97-15.41s6.67-15.22,14.97-15.22,14.47,5.99,14.47,15.22c0,.81-.06,1.62-.12,2.43ZM843.42,258.95c-.69-4.99-4.24-7.86-9.05-7.86s-8.42,2.62-9.3,7.86h18.34Z"/>
      <path class="st0" d="M875,247.1l-.87,5.12c-1.56-.75-3.12-1-4.24-1-5.8,0-8.11,6.3-8.11,13.98v10.67h-5.49v-29.14h5.49v6.61c1.5-5.12,4.3-7.36,8.17-7.36,2.06,0,4.18.56,5.05,1.12Z"/>
      <path class="st0" d="M892.54,261.26c0-9.23,7.3-15.28,15.66-15.28,4.55,0,8.55,1.81,11.1,4.62l-3.43,3.56c-1.81-1.87-4.43-3.06-7.49-3.06-5.74,0-10.36,4.18-10.36,10.17s4.62,10.23,10.36,10.23c3.06,0,5.68-1.19,7.49-3.06l3.43,3.56c-2.56,2.87-6.55,4.61-11.1,4.61-8.36,0-15.66-6.11-15.66-15.35Z"/>
      <path class="st0" d="M923.43,261.26c0-9.23,6.93-15.28,15.22-15.28s15.28,6.05,15.28,15.28-6.99,15.35-15.28,15.35-15.22-6.11-15.22-15.35ZM948.51,261.26c0-5.99-4.49-10.17-9.86-10.17s-9.73,4.18-9.73,10.17,4.43,10.23,9.73,10.23,9.86-4.18,9.86-10.23Z"/>
      <path class="st0" d="M988.32,259.02v16.84h-5.43v-16.53c0-4.87-2.99-7.99-7.05-7.99s-8.92,2.43-8.92,8.73v15.78h-5.43v-29.14h5.43v4.43c1.75-3.56,6.49-5.18,9.67-5.18,7.24,0,11.79,4.87,11.73,13.04Z"/>
      <path class="st0" d="M1023.46,246.72v29.14h-5.43v-24.46h-13.23v24.46h-5.43v-24.46h-5.62v-4.68h5.62v-2.99c0-7.61,3.18-12.85,10.98-12.85h1.75v5.12h-.81c-5.18,0-6.55,3.18-6.49,6.99v3.74h18.66ZM1024.58,235.99c0,2.06-1.68,3.62-3.87,3.62-2.06,0-3.81-1.56-3.81-3.62s1.75-3.62,3.81-3.62c2.18,0,3.87,1.56,3.87,3.62Z"/>
      <path class="st0" d="M1055.91,230.88h5.43v44.98h-5.43v-4.55c-1.93,3.31-6.18,5.3-10.36,5.3-7.99,0-14.6-6.18-14.6-15.35s6.55-15.28,14.54-15.28c4.37,0,8.49,1.87,10.42,5.3v-20.4ZM1055.91,261.2c0-6.3-5.12-10.11-9.92-10.11-5.3,0-9.55,4.24-9.55,10.11s4.24,10.29,9.55,10.29,9.92-4.06,9.92-10.29Z"/>
      <path class="st0" d="M1098.22,263.63h-23.71c.81,5.18,4.55,7.86,9.55,7.86,3.56,0,6.8-1.62,8.49-4.55l4.68,1.87c-2.49,5.05-7.74,7.8-13.35,7.8-8.3,0-14.97-6.18-14.97-15.41s6.67-15.22,14.97-15.22,14.47,5.99,14.47,15.22c0,.81-.06,1.62-.12,2.43ZM1092.92,258.95c-.69-4.99-4.24-7.86-9.05-7.86s-8.42,2.62-9.3,7.86h18.34Z"/>
      <path class="st0" d="M1132.6,259.02v16.84h-5.43v-16.53c0-4.87-2.99-7.99-7.05-7.99s-8.92,2.43-8.92,8.73v15.78h-5.43v-29.14h5.43v4.43c1.75-3.56,6.49-5.18,9.67-5.18,7.24,0,11.79,4.87,11.73,13.04Z"/>
      <path class="st0" d="M1139.6,261.26c0-9.23,7.3-15.28,15.66-15.28,4.55,0,8.55,1.81,11.11,4.62l-3.43,3.56c-1.81-1.87-4.43-3.06-7.49-3.06-5.74,0-10.36,4.18-10.36,10.17s4.62,10.23,10.36,10.23c3.06,0,5.68-1.19,7.49-3.06l3.43,3.56c-2.56,2.87-6.55,4.61-11.11,4.61-8.36,0-15.66-6.11-15.66-15.35Z"/>
      <path class="st0" d="M1199.88,263.63h-23.71c.81,5.18,4.55,7.86,9.55,7.86,3.56,0,6.8-1.62,8.48-4.55l4.68,1.87c-2.49,5.05-7.74,7.8-13.35,7.8-8.3,0-14.97-6.18-14.97-15.41s6.68-15.22,14.97-15.22,14.47,5.99,14.47,15.22c0,.81-.06,1.62-.12,2.43ZM1194.57,258.95c-.69-4.99-4.24-7.86-9.05-7.86s-8.42,2.62-9.3,7.86h18.34Z"/>
    </g>
    <g>
      <path class="st4" d="M111.1,288.28l-101.77,27.8,21.32-44.79C11.48,254.56,0,229.04,0,200.21c0-50.92,35.73-91.58,86.65-91.58s86.65,40.66,86.65,91.58c0,42.23-24.89,77.29-62.19,88.08h0Z"/>
      <path class="st5" d="M181.91,111.72l101.77-27.8-21.32,44.79c19.18,16.73,30.66,42.25,30.66,71.09,0,50.92-35.73,91.58-86.65,91.58-50.5,0-86.65-40.66-86.65-91.58,0-42.23,24.89-77.29,62.19-88.08h0Z"/>
      <path class="st2" d="M173.29,200.21c0-26.83-10.05-50.81-26.94-67.5-16.7,16.64-26.64,40.42-26.64,67.08s10.05,50.81,26.94,67.5c16.7-16.64,26.64-40.42,26.64-67.08Z"/>
    </g>
  </g>
</svg>