<?xml version="1.0" encoding="UTF-8"?>
<svg id="Layer_1" xmlns="http://www.w3.org/2000/svg" version="1.1" viewBox="0 0 1000 400">
  <!-- Generator: Adobe Illustrator 29.5.1, SVG Export Plug-In . SVG Version: 2.1.0 Build 141)  -->
  <defs>
    <style>
      .st0 {
        fill: #7683bb;
      }

      .st1 {
        fill: #fff;
      }

      .st2 {
        fill: #543780;
      }
    </style>
  </defs>
  <rect class="st1" width="1000" height="400"/>
  <g>
    <g>
      <g>
        <path class="st2" d="M99.58,132.95v-6.14h34.39v6.14h-14v56.62h-6.4v-56.62h-14Z"/>
        <path class="st2" d="M146.41,125.23h5.97v26.24c2.42-3.19,5.08-5.57,7.98-7.15,2.9-1.58,6.04-2.37,9.43-2.37s6.55.88,9.24,2.65c2.69,1.76,4.67,4.13,5.95,7.1,1.28,2.97,1.92,7.63,1.92,13.97v23.9h-5.97v-22.15c0-5.35-.21-8.92-.64-10.71-.74-3.07-2.08-5.38-4.03-6.93-1.95-1.55-4.5-2.33-7.66-2.33-3.61,0-6.85,1.19-9.71,3.58-2.86,2.39-4.74,5.35-5.65,8.88-.57,2.28-.85,6.49-.85,12.63v17.03h-5.97v-64.35Z"/>
        <path class="st2" d="M243.16,174.17l5.04,2.65c-1.65,3.24-3.56,5.86-5.72,7.85-2.16,1.99-4.6,3.51-7.3,4.54-2.7,1.04-5.77,1.56-9.18,1.56-7.57,0-13.49-2.48-17.77-7.45-4.27-4.96-6.41-10.57-6.41-16.83,0-5.89,1.81-11.14,5.42-15.75,4.58-5.86,10.72-8.79,18.41-8.79s14.24,3,18.96,9c3.36,4.24,5.07,9.53,5.13,15.87h-41.77c.11,5.39,1.84,9.81,5.17,13.26,3.33,3.45,7.45,5.17,12.35,5.17,2.36,0,4.66-.41,6.9-1.23,2.24-.82,4.14-1.91,5.7-3.27,1.57-1.36,3.26-3.56,5.08-6.59ZM243.16,161.67c-.8-3.19-1.96-5.73-3.48-7.64-1.52-1.91-3.54-3.44-6.04-4.61-2.51-1.17-5.14-1.75-7.9-1.75-4.56,0-8.47,1.46-11.75,4.39-2.39,2.13-4.2,5.33-5.43,9.6h34.61Z"/>
        <path class="st2" d="M295.12,126.81h12.5c6.97,0,11.69.29,14.17.86,3.73.85,6.76,2.68,9.09,5.49,2.33,2.81,3.5,6.26,3.5,10.36,0,3.42-.8,6.42-2.41,9.01-1.61,2.59-3.9,4.55-6.89,5.87-2.99,1.32-7.11,2-12.37,2.03l22.57,29.14h-7.76l-22.57-29.14h-3.55v29.14h-6.27v-62.77ZM301.39,132.95v21.33l10.81.09c4.19,0,7.29-.4,9.29-1.19,2.01-.8,3.58-2.07,4.7-3.82,1.13-1.75,1.69-3.71,1.69-5.87s-.57-4.02-1.71-5.74c-1.14-1.72-2.63-2.95-4.49-3.69-1.85-.74-4.93-1.11-9.23-1.11h-11.07Z"/>
        <path class="st2" d="M390.47,143.15v46.42h-5.89v-7.98c-2.5,3.04-5.31,5.33-8.43,6.87-3.11,1.54-6.52,2.3-10.22,2.3-6.57,0-12.18-2.38-16.83-7.15-4.65-4.76-6.98-10.56-6.98-17.39s2.35-12.4,7.04-17.15,10.34-7.13,16.94-7.13c3.81,0,7.26.81,10.35,2.43,3.09,1.62,5.8,4.05,8.13,7.3v-8.53h5.89ZM366.59,147.72c-3.32,0-6.39.82-9.21,2.45-2.81,1.63-5.05,3.93-6.71,6.88-1.66,2.95-2.49,6.08-2.49,9.38s.84,6.39,2.51,9.38c1.68,2.98,3.93,5.31,6.76,6.97,2.83,1.66,5.86,2.49,9.1,2.49s6.36-.82,9.29-2.47c2.93-1.65,5.18-3.88,6.76-6.69,1.58-2.81,2.36-5.98,2.36-9.5,0-5.37-1.77-9.86-5.31-13.47-3.54-3.61-7.89-5.41-13.06-5.41Z"/>
        <path class="st2" d="M410.35,124.03c1.36,0,2.52.48,3.48,1.45.96.97,1.45,2.13,1.45,3.5s-.48,2.49-1.45,3.46c-.96.97-2.12,1.45-3.48,1.45s-2.48-.48-3.44-1.45c-.96-.97-1.44-2.12-1.44-3.46s.48-2.53,1.44-3.5c.96-.97,2.11-1.45,3.44-1.45ZM407.38,143.15h5.97v46.42h-5.97v-46.42Z"/>
        <path class="st2" d="M429.25,125.23h5.97v64.35h-5.97v-64.35Z"/>
      </g>
      <path class="st0" d="M130.65,206.64c10,0,18.36,3.34,25.1,10.01,6.73,6.67,10.1,14.88,10.1,24.63s-3.36,17.86-10.08,24.59c-6.72,6.73-14.91,10.1-24.58,10.1s-18.05-3.35-24.79-10.05c-6.73-6.7-10.1-14.81-10.1-24.32,0-6.34,1.53-12.22,4.6-17.63,3.07-5.41,7.25-9.65,12.55-12.72,5.3-3.07,11.03-4.6,17.2-4.6ZM130.95,213.06c-4.88,0-9.51,1.27-13.89,3.82-4.37,2.54-7.79,5.97-10.25,10.28-2.46,4.31-3.69,9.12-3.69,14.41,0,7.85,2.72,14.47,8.16,19.87,5.44,5.4,11.99,8.1,19.66,8.1,5.12,0,9.86-1.24,14.22-3.73,4.36-2.48,7.76-5.88,10.2-10.19,2.44-4.31,3.66-9.1,3.66-14.37s-1.22-9.98-3.66-14.21c-2.44-4.24-5.88-7.63-10.31-10.17-4.43-2.54-9.14-3.82-14.11-3.82Z"/>
      <path class="st0" d="M182.61,225.49h6.28v8.44c2.19-3.11,4.43-5.38,6.74-6.82,3.17-1.91,6.51-2.87,10.02-2.87,2.37,0,4.61.46,6.74,1.39,2.13.93,3.86,2.16,5.21,3.7,1.35,1.54,2.51,3.75,3.5,6.62,2.09-3.83,4.7-6.74,7.83-8.73,3.13-1.99,6.51-2.98,10.12-2.98,3.37,0,6.35.85,8.93,2.56,2.58,1.71,4.5,4.08,5.75,7.13,1.25,3.05,1.88,7.63,1.88,13.73v26.65h-6.42v-26.65c0-5.24-.37-8.83-1.12-10.79-.75-1.96-2.02-3.54-3.82-4.73-1.8-1.2-3.96-1.79-6.46-1.79-3.04,0-5.82.9-8.34,2.69-2.52,1.79-4.36,4.19-5.52,7.18-1.16,2.99-1.74,7.99-1.74,14.99v19.12h-6.28v-24.99c0-5.89-.37-9.89-1.1-12-.73-2.11-2.01-3.8-3.84-5.07-1.82-1.27-3.99-1.91-6.51-1.91-2.9,0-5.62.87-8.14,2.62-2.53,1.75-4.4,4.11-5.61,7.07s-1.82,7.49-1.82,13.6v20.69h-6.28v-48.82Z"/>
      <path class="st0" d="M273.85,274.31v-67.67h6.28v27.24c2.63-3.23,5.57-5.65,8.83-7.25,3.26-1.6,6.83-2.4,10.71-2.4,6.9,0,12.8,2.51,17.68,7.52,4.89,5.01,7.33,11.09,7.33,18.24s-2.47,13.09-7.4,18.08c-4.93,5-10.86,7.49-17.8,7.49-3.97,0-7.58-.85-10.8-2.56-3.23-1.71-6.08-4.26-8.56-7.67v8.97h-6.28ZM298.98,269.5c3.49,0,6.72-.86,9.67-2.58,2.95-1.72,5.3-4.14,7.05-7.25,1.75-3.11,2.62-6.4,2.62-9.87s-.88-6.78-2.64-9.92c-1.76-3.14-4.13-5.59-7.1-7.34-2.97-1.75-6.14-2.62-9.51-2.62s-6.69.87-9.78,2.62c-3.09,1.75-5.46,4.11-7.12,7.07-1.66,2.96-2.48,6.3-2.48,10.01,0,5.65,1.86,10.38,5.57,14.18,3.71,3.8,8.29,5.7,13.72,5.7Z"/>
      <path class="st0" d="M339.92,225.49h6.28v22.79c0,5.56.3,9.39.9,11.49.9,2.99,2.61,5.35,5.15,7.09,2.53,1.74,5.55,2.6,9.05,2.6s6.48-.85,8.92-2.54c2.44-1.69,4.13-3.91,5.06-6.66.63-1.88.94-5.88.94-11.98v-22.79h6.42v23.96c0,6.73-.79,11.8-2.36,15.21-1.57,3.41-3.93,6.08-7.09,8.01-3.16,1.93-7.11,2.89-11.87,2.89s-8.73-.96-11.91-2.89c-3.19-1.93-5.56-4.62-7.13-8.08-1.57-3.46-2.36-8.65-2.36-15.59v-23.51Z"/>
      <path class="st0" d="M449.92,206.64v67.67h-6.19v-8.39c-2.63,3.2-5.59,5.61-8.86,7.22-3.28,1.62-6.86,2.42-10.75,2.42-6.91,0-12.81-2.51-17.7-7.52-4.89-5.01-7.34-11.11-7.34-18.29s2.47-13.04,7.4-18.04c4.94-5,10.87-7.49,17.81-7.49,4.01,0,7.64.85,10.88,2.56,3.25,1.71,6.1,4.26,8.55,7.67v-27.82h6.19ZM424.81,230.29c-3.5,0-6.72.86-9.68,2.58-2.96,1.72-5.31,4.13-7.06,7.24-1.75,3.11-2.62,6.39-2.62,9.86s.88,6.72,2.64,9.86c1.76,3.14,4.13,5.58,7.1,7.33,2.97,1.75,6.16,2.62,9.57,2.62s6.69-.87,9.77-2.6c3.08-1.74,5.44-4.08,7.1-7.04,1.66-2.96,2.49-6.29,2.49-10,0-5.65-1.86-10.37-5.58-14.16-3.72-3.8-8.3-5.69-13.74-5.69Z"/>
      <path class="st0" d="M493.28,230.83l-4.04,4.17c-3.36-3.26-6.64-4.89-9.85-4.89-2.04,0-3.79.67-5.24,2.02-1.45,1.35-2.18,2.92-2.18,4.71,0,1.59.6,3.1,1.8,4.53,1.2,1.47,3.72,3.19,7.55,5.16,4.68,2.42,7.85,4.76,9.53,7,1.65,2.27,2.47,4.83,2.47,7.67,0,4.01-1.41,7.4-4.23,10.19-2.82,2.78-6.34,4.17-10.56,4.17-2.82,0-5.51-.61-8.07-1.84-2.56-1.23-4.68-2.92-6.36-5.07l3.95-4.49c3.21,3.62,6.61,5.43,10.21,5.43,2.52,0,4.66-.81,6.43-2.42,1.77-1.62,2.65-3.51,2.65-5.7,0-1.79-.59-3.4-1.75-4.8-1.17-1.38-3.81-3.11-7.91-5.21-4.41-2.27-7.41-4.52-8.99-6.73-1.59-2.21-2.38-4.74-2.38-7.58,0-3.71,1.27-6.79,3.8-9.24,2.53-2.45,5.73-3.68,9.6-3.68,4.49,0,9.02,2.2,13.57,6.6Z"/>
      <path class="st0" d="M508.96,225.49h6.28v8.44c2.19-3.11,4.43-5.38,6.74-6.82,3.17-1.91,6.51-2.87,10.02-2.87,2.37,0,4.61.46,6.74,1.39,2.13.93,3.86,2.16,5.21,3.7,1.35,1.54,2.51,3.75,3.5,6.62,2.09-3.83,4.7-6.74,7.83-8.73,3.13-1.99,6.51-2.98,10.12-2.98,3.37,0,6.35.85,8.93,2.56,2.58,1.71,4.5,4.08,5.75,7.13,1.25,3.05,1.88,7.63,1.88,13.73v26.65h-6.42v-26.65c0-5.24-.37-8.83-1.12-10.79-.75-1.96-2.02-3.54-3.82-4.73-1.8-1.2-3.96-1.79-6.46-1.79-3.04,0-5.82.9-8.34,2.69-2.52,1.79-4.36,4.19-5.52,7.18-1.16,2.99-1.74,7.99-1.74,14.99v19.12h-6.28v-24.99c0-5.89-.37-9.89-1.1-12-.73-2.11-2.01-3.8-3.84-5.07s-3.99-1.91-6.51-1.91c-2.9,0-5.62.87-8.14,2.62-2.53,1.75-4.4,4.11-5.61,7.07-1.21,2.96-1.82,7.49-1.82,13.6v20.69h-6.28v-48.82Z"/>
      <path class="st0" d="M648.44,225.49v48.82h-6.19v-8.39c-2.63,3.2-5.59,5.61-8.86,7.22-3.28,1.62-6.86,2.42-10.75,2.42-6.91,0-12.81-2.51-17.7-7.52-4.89-5.01-7.34-11.11-7.34-18.29s2.47-13.04,7.4-18.04c4.94-5,10.87-7.49,17.81-7.49,4.01,0,7.64.85,10.88,2.56,3.25,1.71,6.1,4.26,8.55,7.67v-8.97h6.19ZM623.33,230.29c-3.5,0-6.72.86-9.68,2.58-2.96,1.72-5.31,4.13-7.06,7.24-1.75,3.11-2.62,6.39-2.62,9.86s.88,6.72,2.64,9.86c1.76,3.14,4.13,5.58,7.1,7.33,2.97,1.75,6.16,2.62,9.57,2.62s6.69-.87,9.77-2.6c3.08-1.74,5.44-4.08,7.1-7.04,1.66-2.96,2.49-6.29,2.49-10,0-5.65-1.86-10.37-5.58-14.16-3.72-3.8-8.3-5.69-13.74-5.69Z"/>
      <path class="st0" d="M667.17,225.49h6.28v8.75c2.51-3.35,5.29-5.86,8.35-7.52,3.05-1.66,6.37-2.49,9.96-2.49s6.89.93,9.71,2.78c2.83,1.85,4.91,4.35,6.26,7.49,1.35,3.14,2.02,8.03,2.02,14.67v25.13h-6.28v-23.29c0-5.62-.23-9.38-.7-11.26-.73-3.23-2.12-5.66-4.19-7.29-2.06-1.63-4.76-2.45-8.08-2.45-3.8,0-7.21,1.26-10.21,3.77-3.01,2.51-4.99,5.62-5.95,9.33-.6,2.42-.9,6.85-.9,13.28v17.9h-6.28v-48.82Z"/>
    </g>
    <g>
      <path class="st0" d="M818.67,167.49c-10.27,0-20.18,1.03-29.46,3.06-2.03,9.27-3.06,19.18-3.06,29.45s1.03,20.19,3.06,29.46c9.27,2.03,19.17,3.06,29.46,3.06s20.2-1.03,29.45-3.06c2.03-9.26,3.05-19.17,3.05-29.46s-1.03-20.19-3.05-29.45c-9.28-2.03-19.18-3.06-29.45-3.06Z"/>
      <path class="st1" d="M818.67,238.84c-11.09,0-21.78-1.15-31.76-3.42l-1.04-.23c-1.19-.27-2.12-1.2-2.39-2.39l-.24-1.04c-2.27-9.99-3.42-20.67-3.42-31.76s1.15-21.77,3.42-31.76l.23-1.04c.27-1.19,1.2-2.12,2.39-2.39l1.05-.24c10-2.27,20.68-3.42,31.76-3.42s21.77,1.15,31.76,3.42l1.04.24c1.19.27,2.12,1.2,2.39,2.39l.24,1.05c2.26,9.98,3.41,20.66,3.41,31.75s-1.15,21.78-3.41,31.76l-.24,1.04c-.27,1.19-1.2,2.12-2.39,2.39l-1.04.24c-9.97,2.27-20.66,3.42-31.76,3.42ZM789.21,229.46c9.27,2.03,19.17,3.06,29.46,3.06s20.2-1.03,29.45-3.06c2.03-9.26,3.05-19.17,3.05-29.46s-1.03-20.19-3.05-29.45c-9.28-2.03-19.18-3.06-29.45-3.06s-20.18,1.03-29.46,3.06c-2.03,9.27-3.06,19.18-3.06,29.45s1.03,20.19,3.06,29.46Z"/>
      <path class="st2" d="M869.29,163.58c-6.48-2.51-11.61-7.65-14.11-14.13-8.11-21.03-21.28-34.46-36.43-34.48-15.15-.02-28.35,13.39-36.5,34.4-2.52,6.48-7.66,11.61-14.14,14.12-21.02,8.11-34.46,21.28-34.47,36.43-.02,15.15,13.39,28.35,34.41,36.5,6.48,2.51,11.6,7.65,14.1,14.13,8.11,21.03,21.28,34.47,36.44,34.48,15.15.02,28.35-13.39,36.51-34.41,2.51-6.47,7.64-11.6,14.12-14.09,21.03-8.11,34.47-21.29,34.49-36.44.02-15.15-13.39-28.35-34.4-36.51ZM854.09,231.76l-.24,1.04c-.27,1.19-1.2,2.12-2.39,2.39l-1.04.24c-9.97,2.27-20.66,3.42-31.76,3.42s-21.78-1.15-31.76-3.42l-1.04-.23c-1.19-.27-2.12-1.2-2.39-2.39l-.24-1.04c-2.27-9.99-3.42-20.67-3.42-31.76s1.15-21.77,3.42-31.76l.23-1.04c.27-1.19,1.2-2.12,2.39-2.39l1.05-.24c10-2.27,20.68-3.42,31.76-3.42s21.77,1.15,31.76,3.42l1.04.24c1.19.27,2.12,1.2,2.39,2.39l.24,1.05c2.26,9.98,3.41,20.66,3.41,31.75s-1.15,21.78-3.41,31.76ZM858.67,160.08h0s0,0,0,0h0Z"/>
    </g>
  </g>
</svg>